<?xml version="1.0" encoding="utf-8"?>
<!-- Generator: Adobe Illustrator 27.5.0, SVG Export Plug-In . SVG Version: 6.00 Build 0)  -->
<svg version="1.1" xmlns="http://www.w3.org/2000/svg" xmlns:xlink="http://www.w3.org/1999/xlink" x="0px" y="0px"
	 viewBox="0 0 750 500" style="enable-background:new 0 0 750 500;" xml:space="preserve">
<g id="BACKGROUND">
	<rect style="fill:#FFFFFF;" width="750" height="500"/>
</g>
<g id="OBJECTS">
	<g>
		<g>
			<rect x="371.809" y="67.9" style="fill:#CACACA;" width="279.386" height="195.715"/>
			<g>
				<g>
					<rect x="376.987" y="72.964" style="fill:#F1F1F1;" width="269.184" height="183.779"/>
				</g>
				<rect x="376.484" y="86.859" style="fill:#E4E4E4;" width="51.689" height="170.282"/>
				<rect x="396.723" y="107.426" style="fill:#F1F1F1;" width="20.503" height="72.048"/>
				<rect x="396.723" y="196.607" style="fill:#F1F1F1;" width="20.503" height="60.453"/>
				<rect x="441.45" y="221.036" style="fill:#E4E4E4;" width="93.775" height="35.707"/>
				<rect x="565.808" y="221.036" style="fill:#E4E4E4;" width="80.364" height="35.574"/>
				<g>
					<rect x="493.025" y="153.731" style="fill:#E4E4E4;" width="53.183" height="103.012"/>
					<g>
						<rect x="500.557" y="168.056" style="fill:#F1F1F1;" width="5.202" height="80.559"/>
						<rect x="508.978" y="168.056" style="fill:#F1F1F1;" width="5.202" height="80.559"/>
						<rect x="517.4" y="168.056" style="fill:#F1F1F1;" width="5.202" height="80.559"/>
						<rect x="525.821" y="168.056" style="fill:#F1F1F1;" width="5.202" height="80.559"/>
						<rect x="534.243" y="168.056" style="fill:#F1F1F1;" width="5.202" height="80.559"/>
					</g>
				</g>
				<rect x="444.608" y="72.388" style="fill:#CACACA;" width="4.021" height="184.222"/>
				<rect x="520.09" y="72.388" style="fill:#CACACA;" width="4.021" height="184.222"/>
				<rect x="581.562" y="72.388" style="fill:#CACACA;" width="4.021" height="184.222"/>
				<rect x="376.699" y="157.91" style="fill:#CACACA;" width="269.473" height="7.165"/>
			</g>
			<g>
				<rect x="66.083" y="67.9" style="fill:#CACACA;" width="276.954" height="194.685"/>
				<rect x="69.724" y="72.964" style="fill:#F1F1F1;" width="269.184" height="183.779"/>
				<rect x="140.561" y="218.971" style="fill:#E4E4E4;" width="91.567" height="37.735"/>
				<rect x="229.802" y="87.257" style="fill:#E4E4E4;" width="109.106" height="169.486"/>
				<rect x="239.16" y="104.146" style="fill:#F1F1F1;" width="20.503" height="72.048"/>
				<rect x="272.046" y="104.146" style="fill:#F1F1F1;" width="20.503" height="72.048"/>
				<rect x="304.932" y="104.146" style="fill:#F1F1F1;" width="20.503" height="72.048"/>
				<rect x="239.16" y="185.774" style="fill:#F1F1F1;" width="20.503" height="70.932"/>
				<rect x="272.046" y="185.774" style="fill:#F1F1F1;" width="20.503" height="70.932"/>
				<rect x="304.932" y="185.774" style="fill:#F1F1F1;" width="20.503" height="70.932"/>
				<rect x="69.724" y="139.456" style="fill:#E4E4E4;" width="71.354" height="117.287"/>
				<rect x="69.724" y="149.723" style="fill:#F1F1F1;" width="67.832" height="39.83"/>
				<rect x="69.724" y="195.921" style="fill:#F1F1F1;" width="67.832" height="39.83"/>
				<g>
					<rect x="154.482" y="91.849" style="fill:#E4E4E4;" width="45.682" height="164.894"/>
					<rect x="160.463" y="102.038" style="fill:#F1F1F1;" width="8.426" height="99.381"/>
					<rect x="173.11" y="102.038" style="fill:#F1F1F1;" width="8.425" height="99.381"/>
					<rect x="185.757" y="102.038" style="fill:#F1F1F1;" width="8.425" height="99.381"/>
					<rect x="160.463" y="207.872" style="fill:#F1F1F1;" width="8.426" height="48.834"/>
					<rect x="173.11" y="207.872" style="fill:#F1F1F1;" width="8.425" height="48.834"/>
					<rect x="185.757" y="242.278" style="fill:#F1F1F1;" width="8.425" height="14.428"/>
				</g>
				<rect x="67.583" y="158.694" style="fill:#CACACA;" width="271.908" height="6.159"/>
				<rect x="269.904" y="72.964" style="fill:#CACACA;" width="4.021" height="184.222"/>
				<rect x="196.012" y="72.964" style="fill:#CACACA;" width="4.021" height="184.222"/>
				<rect x="124.261" y="72.964" style="fill:#CACACA;" width="4.021" height="184.222"/>
			</g>
		</g>
		<g>
			<g>
				<rect x="563.662" style="fill:#BA5F16;" width="8.17" height="18.064"/>
				<ellipse style="fill:#CACACA;" cx="567.747" cy="35.777" rx="27.096" ry="8.521"/>
				<path style="fill:#E1721B;" d="M533.279,34.66c7.022-12.739,20.498-20.613,34.979-20.426
					c14.121,0.183,27.114,8.005,33.958,20.426C579.236,34.66,556.258,34.66,533.279,34.66z"/>
			</g>
			<g>
				<rect x="369.219" style="fill:#BA5F16;" width="8.17" height="18.064"/>
				<ellipse style="fill:#CACACA;" cx="374.322" cy="35.777" rx="27.096" ry="8.521"/>
				<path style="fill:#E1721B;" d="M338.836,34.66c7.022-12.739,20.498-20.613,34.979-20.426
					c14.121,0.183,27.114,8.005,33.957,20.426C384.793,34.66,361.815,34.66,338.836,34.66z"/>
			</g>
			<g>
				<rect x="174.776" style="fill:#BA5F16;" width="8.17" height="18.064"/>
				<ellipse style="fill:#CACACA;" cx="179.594" cy="35.777" rx="27.096" ry="8.521"/>
				<path style="fill:#E1721B;" d="M144.393,34.66c7.022-12.739,20.498-20.613,34.979-20.426
					c14.121,0.183,27.114,8.005,33.958,20.426C190.351,34.66,167.372,34.66,144.393,34.66z"/>
			</g>
		</g>
		<rect y="424.543" style="fill:#E4E4E4;" width="750" height="11.186"/>
	</g>
	<rect y="460.967" style="fill:#C69BE7;" width="750" height="39.033"/>
	<g>
		<g>
			<g>
				<path style="fill:#52209C;" d="M160.228,252.239c15.745-3.923,28.179-22.533,33.72-37.127c2.521-8.598,2.317-22.663-6.814-27.09
					c-13.026,0.648-22.381,26.227-29.361,35.926c-3.619-6.215-9.249-19.934-14.289-31.449c-4.808,2.889-7.079,2.446-11.887,5.335
					C133.117,213.325,136.861,257.17,160.228,252.239z"/>
				<path style="fill:#411285;" d="M173.095,245.5c2.883-2.526,9.452-9.426,9.452-9.426c-0.423-10.652-1.384-23.502,0-34.064
					C177.346,214.446,169.89,232.11,173.095,245.5z"/>
				<path style="fill:#411285;" d="M156.854,241.243c2.784,0.28,4.62,2.626,5.055,5.254c-2.289-4.305-7.469-4.02-11.371-2.782
					C151.795,241.817,154.629,240.997,156.854,241.243z"/>
				<path style="fill:#411285;" d="M157.716,224.069c2.189,3.081,3.892,6.507,5.025,10.113c-0.667-3.96-1.926-8.079-3.693-11.688"/>
			</g>
			<g>
				<path style="fill:#E8C4AE;" d="M135.318,199.709c0.629,0.118,1.274,0.226,1.904,0.115c0.573-0.101,1.097-0.379,1.607-0.658
					c1.176-0.644,2.335-1.318,3.476-2.022c1.263-0.779,1.916-2.287,1.521-3.718c-0.024-0.088-0.049-0.176-0.074-0.264
					c-0.156-0.541-0.333-1.083-0.637-1.556c-0.376-0.584-0.928-1.033-1.501-1.426c-1.743-1.195-3.824-1.967-5.937-1.912
					c-1.048,0.027-2.08,0.255-3.094,0.522c-1.689,0.446-3.426,1.056-4.603,2.348c-0.837,0.919-1.314,2.102-1.773,3.258
					c-0.222,0.557-0.444,1.114-0.665,1.671c-0.189,0.476-0.402,0.708,0.036,1.003c0.829,0.559,2.242,0.764,3.2,1.051
					C130.931,198.765,133.113,199.284,135.318,199.709z"/>
				<path style="fill:#C99782;" d="M128.694,197.652c1.822-0.08,3.547-0.92,4.965-2.067c0.122-0.099,0.247-0.205,0.315-0.347
					c0.081-0.169,0.071-0.366,0.048-0.552c-0.048-0.372-0.145-0.736-0.242-1.099c-0.372-1.388-0.761-2.812-1.609-3.973
					c-0.105-0.144-0.219-0.285-0.364-0.387c-0.161-0.114-0.354-0.176-0.549-0.205c-0.836-0.124-1.64,0.332-2.346,0.796
					c-1.151,0.755-2.29,1.615-2.971,2.811c-0.315,0.553-0.521,1.16-0.705,1.768c-0.225,0.743-0.651,2.123,0.229,2.567
					C126.453,197.466,127.586,197.701,128.694,197.652z"/>
				<g>
					<path style="fill:#D84E88;" d="M112.44,175.104l22.89,23.749c0.99,1.027,2.697,0.066,2.334-1.312l-8.231-31.271"/>
					<g>
						<path style="fill:#E1721B;" d="M127.974,133.76c-3.983,9.945-4.839,21.117-2.418,31.553c0.497-5.549,1.387-11.108,3.36-16.317
							c1.973-5.21,5.088-10.08,9.471-13.519c0.047-0.037-0.054-0.112-0.076-0.056"/>
						<path style="fill:#E1721B;" d="M88.971,124.206c-0.1,0.622-0.149,1.264-0.011,1.879c0.138,0.615,0.482,1.205,1.023,1.528
							c0.488,0.291,1.082,0.34,1.65,0.34c0.774,0,1.585-0.091,2.225-0.527c0.874-0.594,1.243-1.703,1.363-2.752
							c0.236-2.069-0.922-3.229-2.936-3.551C90.395,120.821,89.247,122.501,88.971,124.206z"/>
						<path style="fill:#D84E88;" d="M60.563,161.206c-0.164,1.164,0.217,2.414,1.07,3.223c0.853,0.81,2.175,1.121,3.27,0.692
							c0.846-0.331,1.499-1.057,1.882-1.881c0.383-0.824,0.521-1.743,0.558-2.651c0.012-0.292,0.012-0.592-0.093-0.864
							c-0.154-0.4-0.511-0.681-0.853-0.939c-1.035-0.782-2.274-1.655-3.546-0.969C61.68,158.448,60.745,159.915,60.563,161.206z"/>
						<path style="fill:#52209C;" d="M130.233,124.404c0.273,0.119,0.581,0.132,0.877,0.1c2.534-0.277,4.059-4.737,0.82-5.032
							C129.679,119.268,128.004,123.431,130.233,124.404z"/>
						<path style="fill:#52209C;" d="M141.299,150.502c-2.501,6.275,8.591,2.695,4.538-1.745
							C144.388,147.534,141.967,149.174,141.299,150.502z"/>
						<path style="fill:#E1721B;" d="M77.736,162.747c5.632,0.482,11.275,0.966,16.827,2.024c4.326,0.825,8.585,1.997,12.724,3.501
							c2.112,0.768,4.222,1.639,5.998,3.015c-12.112-3.672-25.534-2.834-37.096,2.314"/>
						<path style="fill:#D84E88;" d="M108.105,124.579c-0.106,4.878,0.544,9.751,1.598,14.515
							c2.172,9.812,6.079,19.238,11.488,27.708c-0.981-3.37-1.863-6.771-2.531-10.217c-1.13-5.82-1.647-11.793-1.054-17.692
							s2.325-11.733,5.459-16.766"/>
						<path style="fill:#52209C;" d="M70.147,149.484c7.448-0.725,15.019,0.794,21.896,3.743
							c6.877,2.949,13.093,7.292,18.695,12.254c-1.333-2.407-3.077-4.556-4.747-6.743c-3.382-4.429-6.5-9.069-10.185-13.248
							c-5.427-6.155-12.055-11.248-19.4-14.906"/>
					</g>
				</g>
				<path style="fill:#E8C4AE;" d="M139.946,196.788c-3.046-0.987-5.525-3.57-6.385-6.655c-0.37-1.327-0.744-2.806-1.502-3.983
					c-0.462-0.717-1.13-1.269-1.75-1.855c-1.691-1.598-3.138-3.697-3.108-6.023c0.005-0.392,0.066-0.813,0.338-1.095
					c0.364-0.378,0.993-0.368,1.463-0.136c0.47,0.233,0.825,0.639,1.194,1.011c2.291,2.313,5.421,3.54,8.299,5.061
					c0.868,0.459,1.734,0.959,2.411,1.67c1.011,1.06,1.517,2.489,1.997,3.872c0.585,1.688,0.443,3.725,1.028,5.412L139.946,196.788z
					"/>
				<g>
					<path style="fill:#E8C4AE;" d="M128.135,184.75c2.071,0.265,3.109,2.541,1.549,4.091c1.97-0.375,3.74,1.998,2.387,3.634
						c5.649,1.796-9.124,7.392-7.624,2.588c-1.586-0.071-3.372-2.12-1.732-3.293c-2.326,0.062-2.983-3.063-1.42-4.491
						C111.948,183.326,131.459,177.859,128.135,184.75z"/>
					<g>
						<path style="fill:#C99782;" d="M121.289,187.329c2.158-1.153,4.409-2.236,6.833-2.574c-0.457-0.123-0.942-0.032-1.404,0.072
							c-2.044,0.464-4.089,1.231-5.602,2.682"/>
						<path style="fill:#C99782;" d="M128.662,189.107c0.355-0.06,0.714-0.104,1.059-0.207c-2.346-1.086-5.939,1.143-7.233,3.174
							C124.265,190.627,126.349,189.451,128.662,189.107z"/>
						<path style="fill:#C99782;" d="M128.491,192.971c1.168-0.295,2.394-0.281,3.576-0.514c-2.637-0.518-5.984,0.419-7.636,2.634
							C125.594,194.08,127.027,193.388,128.491,192.971z"/>
					</g>
				</g>
			</g>
		</g>
		<g>
			<polyline style="fill:#E7CBFC;" points="266.236,417.133 253.008,436.051 239.779,422.749 248.265,405.402 			"/>
			<g>
				<path style="fill:#28292C;" d="M269.591,477.041c2.646-2.941,2.951-7.355,2.143-11.228c-0.489-2.346-1.336-4.625-2.577-6.676
					c-0.802-1.326-1.762-2.548-2.65-3.818c-2.511-3.591-4.443-7.585-5.721-11.776c-1.231-4.038-1.06-8.089-1.961-12.107
					c-0.138-0.614-0.33-1.241-0.752-1.707c-0.818-0.904-3.106-1.111-4.238-1.059c-1.482,0.068-2.994,0.362-4.428-0.017
					c-3.839-1.014-6.983-6.051-9.514-8.83c-0.062-0.068-0.131-0.14-0.222-0.157c-0.103-0.019-0.203,0.039-0.291,0.095
					c-6.944,4.384-12.68,10.661-16.421,17.972"/>
				<g>
					<path style="fill:#F1F1F1;" d="M259.732,432.998c0.462,0.099,0.935,0.23,1.298,0.532c0.363,0.302,0.588,0.817,0.422,1.259
						c-0.743,0.203-1.53,0.11-2.298,0.047c-3.096-0.254-6.234,0.009-9.245,0.774c-0.578,0.147-1.202,0.31-1.753,0.084
						c-0.96-0.392-0.741-1.386,0.044-1.71c1.125-0.464,2.53-0.612,3.723-0.833C254.492,432.675,257.154,432.446,259.732,432.998z"/>
					<path style="fill:#F1F1F1;" d="M250.668,440.011c-0.495,0.243-0.993,0.548-1.26,1.03c-0.075,0.135-0.131,0.291-0.098,0.441
						c0.068,0.309,0.448,0.423,0.764,0.438c0.986,0.047,1.944-0.292,2.887-0.588c2.188-0.686,4.555-1.153,6.758-0.516
						c0.453,0.131,1.03,0.271,1.322-0.099c0.093-0.118,0.134-0.269,0.144-0.418c0.122-1.847-3.498-1.504-4.626-1.502
						C254.539,438.801,252.495,439.115,250.668,440.011z"/>
					<path style="fill:#F1F1F1;" d="M259.382,444.316c1.242-0.083,2.61-0.044,3.558,0.763c0.124,0.106,0.243,0.229,0.293,0.385
						c0.113,0.352-0.18,0.728-0.529,0.85c-0.349,0.123-0.731,0.066-1.099,0.029c-1.16-0.119-2.341-0.033-3.472,0.253
						c-0.889,0.225-4.453,1.551-3.731-0.641C254.966,444.235,257.951,444.411,259.382,444.316z"/>
				</g>
			</g>
			<g>
				<path style="fill:#363636;" d="M243.399,275.481c76.959,69.003,83.809,67.922,17.443,153.174
					c-3.088-3.85-17.196-17.332-17.196-17.332c7.16-20.166,6.813-47.443,24.019-61.738c-29.301-15.985-54.683-37.413-65.86-69.847"
					/>
				<path style="fill:#28292C;" d="M291.478,340.898c-2.76,5.304-1.46,12.253,3.03,16.201
					C287.404,355.257,285.038,345.034,291.478,340.898z"/>
				<path style="fill:#28292C;" d="M267.665,349.586c2.526-0.683,5.386-0.999,7.935-0.408c-1.766-3.294-6.308-2.172-8.609-0.008"/>
				<path style="fill:#28292C;" d="M231.572,305.765c3.452-1.654,7.111-3.885,9.332-7.026c-21.809,5.652-20.134,2.118-11.503,23.057
					c0.939-5.014,0.58-10.169,0.218-15.258C230.281,306.306,230.932,306.048,231.572,305.765z"/>
			</g>
		</g>
		<g>
			<polyline style="fill:#E7CBFC;" points="197.97,453.893 200.82,471.5 218.772,471.149 218.019,453.542 			"/>
			<g>
				<path style="fill:#363636;" d="M191.334,486.985c-1.697-6.333-0.047-16.269,4.243-21.549c2.81-1.657,4.508,0.312,8.189,0.552
					c7.281,0.474,9.19-3.957,14.636-5.047c2.264,0.033,4.004,1.915,5.528,3.59c4.397,4.833,9.617,9.232,15.905,11.01
					c6.566,0.93,12.942,3.879,12.604,11.444"/>
				<g>
					<path style="fill:#F1F1F1;" d="M216.105,469.889c-0.178,0.316-0.343,0.661-0.325,1.023c0.018,0.362,0.281,0.737,0.643,0.757
						c0.33,0.018,0.601-0.244,0.826-0.487c0.835-0.9,1.67-1.799,2.505-2.699c0.465-0.501,0.931-1.003,1.447-1.453
						c0.985-0.858,2.132-1.508,3.184-2.282c0.619-0.456,0.907-1.621-0.241-1.541c-0.617,0.043-1.491,0.828-2.027,1.14
						c-1.518,0.883-2.981,1.897-4.21,3.161C217.211,468.223,216.595,469.018,216.105,469.889z"/>
					<path style="fill:#F1F1F1;" d="M222.759,468.75c-1.257,1.072-2.353,2.371-2.991,3.895c-0.144,0.344-0.212,0.842,0.126,1.002
						c0.193,0.092,0.424,0.009,0.607-0.102c0.303-0.184,0.555-0.44,0.8-0.696c1.371-1.426,2.697-2.927,4.339-4.029
						c0.45-0.302,3.031-2.305,1.294-2.592c-0.685-0.113-1.464,0.583-1.992,0.923C224.184,467.64,223.446,468.164,222.759,468.75z"/>
					<path style="fill:#F1F1F1;" d="M223.998,475.269c-0.108,0.228-0.206,0.47-0.197,0.722c0.009,0.252,0.154,0.515,0.395,0.588
						c0.257,0.078,0.524-0.074,0.742-0.231c1.104-0.795,1.962-1.875,2.876-2.883c0.914-1.008,1.935-1.98,3.211-2.454
						c0.276-0.102,0.579-0.193,0.76-0.425c0.304-0.393,0.053-1.034-0.406-1.225c-0.746-0.31-1.495,0.383-2.082,0.755
						c-0.708,0.449-1.407,0.914-2.071,1.425C225.913,472.551,224.715,473.758,223.998,475.269z"/>
				</g>
			</g>
			<g>
				<path style="fill:#363636;" d="M223.949,276.716c10.929,58.662,3.794,120.889-3.644,179.286
					c-8.333-0.113-17.001,1.379-25.157,1.936c-2.534-1.025-2.439-7.069-2.861-9.556c-3.219-29.752-11.746-62.663-0.795-91.423
					c-8.304-24.444-6.995-51.478-6.967-77.108"/>
				<path style="fill:#28292C;" d="M211.728,360.19c0.215,1.99,1.206,3.886,2.717,5.198c-6.472-0.821-6.902-10.802-0.792-11.648
					C212.466,355.572,211.402,357.902,211.728,360.19z"/>
			</g>
		</g>
		<g>
			<path style="fill:#52209C;" d="M335.418,227.51c0.297,3.551,0.595,7.101,0.892,10.652c-17.353,3.715-45.119,17.45-62.377,11.882
				c-13.187-8.8-24.572-22.212-29.993-37.227c-2.872-9.087-4.654-27.326,10.24-21.855c14.958,5.238,19.436,22.122,28.528,33.598
				c17.35-0.447,34.892-0.016,52.271-2.303C335.124,224.008,335.271,225.759,335.418,227.51z"/>
			<path style="fill:#411285;" d="M251.936,205.329c3.402,13.584,9.538,21.621,10.535,35.589
				c-4.302-4.734-9.186-8.972-11.748-14.833L251.936,205.329z"/>
			<path style="fill:#411285;" d="M276.893,243.448c1.395,0.596,2.58,1.706,3.193,3.093c-2.136-2.406-5.622-2.728-8.658-2.556
				C272.683,242.435,275.18,242.77,276.893,243.448z"/>
			<path style="fill:#411285;" d="M282.508,224.719c-2.074,1.871-3.26,4.599-4.212,7.182c-0.149-3.217,1.209-6.473,3.601-8.63"/>
		</g>
		<g>
			<path style="fill:#52209C;" d="M183.335,285.456c-2.672-14.066-4.772-31.802-4.24-52.26c0.441-16.942,2.584-31.813,5.161-44.087
				c20.815-12.535,51.064-5.477,70.926,2.233c0.707,13.066,0.734,28.043-0.617,44.518c-1.282,15.628-4.429,29.977-7.063,42.249
				c-8.358,2.669-17.758,4.967-29.631,6.476C204.561,286.275,192.815,286.176,183.335,285.456z"/>
			<path style="fill:#411285;" d="M220.53,205.329c1.451,11.312,2.407,24.529,2.108,39.266c-0.305,15.039-1.852,28.451-3.82,39.865
				C219.389,258.084,219.96,231.706,220.53,205.329z"/>
			<g>
				<g>
					<g>
						<path style="fill:#FFFFFF;" d="M200.523,265.71c0.131,1.769,1.062,3.421,2.276,5.022c4.259-0.897,8.556-1.609,12.875-2.137
							c0.81-0.905,1.639-1.793,2.497-2.653c0.518-0.441,0.801-1.05,0.562-1.714c-0.642-2.391-0.955-4.774-1.042-7.152
							c-5.64,1.432-11.137,3.414-16.395,5.909C201.035,263.894,200.778,264.803,200.523,265.71z"/>
						<path style="fill:#E4E4E4;" d="M201.295,262.984c5.257-2.495,10.754-4.476,16.395-5.909c-0.108-2.947,0.135-5.888,0.548-8.828
							c-4.618,0.768-9.106,2.057-13.457,3.799C203.455,255.634,202.345,259.308,201.295,262.984z"/>
						<path style="fill:#E4E4E4;" d="M208.605,278.029c2.074-3.344,4.446-6.501,7.069-9.434c-4.32,0.528-8.617,1.241-12.875,2.137
							C204.68,273.212,207.245,275.567,208.605,278.029z"/>
						<path style="fill:#FFFFFF;" d="M221.388,219.833l-7.177-1.191c0.243,3.708,0.249,7.574-0.281,11.323
							c2.486-0.858,5.025-1.56,7.6-2.094C221.727,225.206,221.726,222.529,221.388,219.833z"/>
						<path style="fill:#FFFFFF;" d="M210.13,241.036c-0.359,0.574-0.735,1.139-1.151,1.685c-1.665,2.991-3.016,6.124-4.199,9.326
							c4.35-1.742,8.839-3.031,13.457-3.799c0.496-3.539,1.234-7.079,1.9-10.63C216.725,238.516,213.376,239.652,210.13,241.036z"/>
						<path style="fill:#E4E4E4;" d="M221.53,227.871c-2.575,0.535-5.114,1.236-7.6,2.094c-0.555,3.928-1.707,7.722-3.799,11.071
							c3.245-1.384,6.595-2.52,10.007-3.418C220.745,234.382,221.288,231.136,221.53,227.871z"/>
					</g>
					<path style="fill:#E4E4E4;" d="M214.294,220.454c2.253,1.569,7.323,0.923,7.412,3.635c-0.04-1.221-0.16-3.344-0.369-4.947"/>
				</g>
				<path style="fill:#E4E4E4;" d="M217.307,216.197c-4.036-8.566-6.187-18.015-6.258-27.484c-0.012-1.678,0.91-2.777,2.623-2.914
					c0.746-0.06,1.577,0.263,1.879,0.949c0.178,0.404,0.149,0.865,0.118,1.305c-0.303,4.205-0.491,7.806,0.388,11.957
					c0.842,3.98,2.075,7.877,3.679,11.615c1.593-2.853,3.111-5.748,4.536-8.688c2.177-4.494,4.137-9.094,5.869-13.777
					c1.324,0.427,2.674,0.773,4.04,1.035c-0.069,1.139-0.544,2.21-1.025,3.245c-3.439,7.405-7.566,14.49-12.31,21.135"/>
				<path style="fill:#FFFFFF;" d="M213.06,208.561c-0.16,0.052-0.326,0.113-0.439,0.238c-0.129,0.142-0.167,0.342-0.197,0.531
					c-0.602,3.736-0.202,7.628,1.147,11.164c3.064,0.001,6.129,0.15,9.179,0.446c0.907-2.011,1.546-4.141,1.904-6.317
					c0.173-1.053,0.279-2.117,0.319-3.183c0.048-1.294,0.046-1.699-1.245-2.109c-1.458-0.464-2.97-0.521-4.456-0.854
					C217.17,208.005,215.141,207.88,213.06,208.561z"/>
			</g>
		</g>
		<g>
			<g>
				<path style="fill:#E8C4AE;" d="M218.056,163.84c-0.555,3.505-1.411,6.954-2.361,10.371c-0.439,1.579-0.713,3.539-1.482,4.988
					c-0.297,0.56-0.668,0.909-0.837,1.556c-0.217,0.828-0.241,1.711-0.163,2.559c0.116,1.271,0.467,2.507,0.817,3.735
					c0.271,0.952,0.542,1.904,0.814,2.855c0.551,1.935,1.103,3.87,1.654,5.806c0.718,2.52,1.451,5.075,2.821,7.309
					c0.187,0.305,0.392,0.61,0.68,0.823c0.082,0.061,0.174,0.114,0.275,0.121c0.251,0.016,0.42-0.242,0.544-0.462
					c0.449-0.796,1.033-1.506,1.646-2.183c0.632-0.698,1.299-1.367,1.859-2.124c1.423-1.926,2.066-4.299,2.797-6.58
					c0.242-0.753,0.499-1.51,0.922-2.179c0.951-1.503,2.618-2.392,3.792-3.729c2.095-2.386,1.809-5.545,1.818-8.509
					c0.007-2.479-0.05-4.958-0.059-7.437c-0.008-2.169,0.017-4.34,0.168-6.504"/>
				<path style="fill:#411285;" d="M216.854,185.622c0.701,1.426,0.855,2.943,0.531,4.488c-0.463,4.478,2.256,8.621,3.139,13.035
					c3.454-4.067,5.947-9.046,7.34-14.168c2.867-3.188,5.46-7.003,5.785-11.395c3.842,6.255,3.981,14.516,0.351,20.897
					c-1.145-2.965-2.972-5.61-4.782-8.224c-0.312,6.055-6.49,9.843-8.688,15.073c-2.651-5.606-7.978-11.143-6.671-17.745
					c-1.778,1.771-3.557,3.542-5.335,5.313c-0.632-6.763,2.051-13.758,7.043-18.365
					C215.399,178.205,215.473,182.169,216.854,185.622z"/>
				<path style="fill:#C99782;" d="M218.291,167.246c2.229,6.434,8.886,9.672,15.394,9.619c0,0-0.062-6.275,0.189-9.194"/>
			</g>
		</g>
		<g>
			<g>
				<path style="fill:#363636;" d="M217.462,165.326c-0.443,5.536-8.942,4.957-8.635-0.585c-4.935,2.088-15.288-2.648-10.91-8.621
					c-3.944-2.251-6.792-8.553-2.381-11.66c-5.211-2.186-3.166-10.381,2.459-9.866c-2.923-6.099,4.241-15.987,10.548-10.778
					c-1.545-5.719,9.151-11.86,12.396-5.831c4.324-6.388,21.794-8.509,18.267,2.894c7.009-5.58,16.576,7.324,10.125,12.629
					c4.806,1.367,10.392,14.081,2.885,14.344c4.761,9.772-11.304,12.282-12.535,2.414c0.002,10.103-16.917,8.485-16.613-1.236
					c2.379,4.981-2.617,12.941-7.791,8.552c2.144,1.251,4.266,9.007,0.864,8.908"/>
				<g>
					<path style="fill:#28292C;" d="M231.632,119.098c1.249,0.285,2.326,1.132,3.047,2.191c0.697,1.024,1.09,2.318,0.787,3.518
						c0.417-0.802,1.391-1.238,2.287-1.116c0.896,0.122,1.682,0.745,2.106,1.543c0.424,0.798,0.509,1.749,0.347,2.638
						c0.062-0.275-0.096-0.547-0.248-0.785c-0.41-0.643-0.857-1.318-1.548-1.641c-1.105-0.516-2.429,0.062-3.341,0.872
						c0.148-0.735-0.016-1.495-0.22-2.217c-0.363-1.285-0.913-2.612-2.013-3.368c-0.396-0.273-0.847-0.458-1.302-0.614
						c-0.711-0.244-1.465-0.426-2.211-0.33c-0.47,0.06-0.896,0.248-1.278,0.525c0.003-0.528,0.996-0.953,1.428-1.103
						C230.161,118.974,230.922,118.936,231.632,119.098z"/>
					<path style="fill:#28292C;" d="M212.883,123.339c-1.297,0.812-2.025,2.481-1.649,3.964c-4.439-4.035-10.801,2.791-6.161,6.724
						c-2.554-4.59,3.62-8.319,7.131-5.23c-1.208-2.96,2.308-7.037,5.275-5.078C216.531,122.38,214.121,122.564,212.883,123.339z"/>
					<path style="fill:#28292C;" d="M202.198,140.333c-2.161,1.274-2.249,4.848,0.2,5.827c-5.82-0.709-3.766,7.944,1.271,6.863
						c-4.82-0.678-5.202-7.019,0.445-6.298c-4.267-1.69-1.876-7.861,2.349-6.7C205.274,139.78,203.127,139.299,202.198,140.333z"/>
				</g>
			</g>
			<g>
				<path style="fill:#E8C4AE;" d="M223.35,171.791c9.435,2.921,18.514,0.919,20.434-9.073c1.596-8.307,3.444-23.16-5.818-26.642
					c-11.154-4.193-26.842-1.348-26.872,13.609C211.077,158.296,213.502,169.008,223.35,171.791z"/>
				<g>
					<path style="fill:#363636;" d="M244.984,147.949c0.858,0.34,3.126,0.77,3.783-0.156c0.298-0.419,0.331-0.966,0.324-1.48
						c-0.01-0.786-0.096-1.594-0.461-2.291c-0.364-0.697-1.057-1.265-1.843-1.29c0.965-1.866,0.956-4.153,0.202-6.114
						c-0.754-1.961-2.2-3.608-3.908-4.832c-1.511-1.083-3.272-1.87-5.125-2.024c-1.853-0.154-3.799,0.371-5.175,1.621
						c-1.258-1.62-3.637-1.736-5.681-1.555c-2.896,0.256-5.994,0.944-7.907,3.133c-0.148,0.169-0.295,0.352-0.498,0.448
						c-0.2,0.094-0.43,0.092-0.65,0.096c-2.551,0.044-5.066,1.163-6.807,3.029c-1.74,1.866-2.682,4.453-2.548,7.001
						c0.014,0.267,0.037,0.546-0.069,0.791c-0.115,0.263-0.358,0.442-0.564,0.643c-0.697,0.682-0.985,1.697-0.985,2.672
						c0,0.975,0.258,1.929,0.514,2.87c0.14,0.515,0.293,1.054,0.66,1.442c0.367,0.388,1.021,0.561,1.441,0.232
						c-0.331,1.539,0.574,3.252,2.033,3.844c1.459,0.592,3.302-0.004,4.138-1.338c0.836-1.335,0.567-3.253-0.603-4.307
						c1.332,0.183,2.742-0.517,3.401-1.689c0.477-0.848,0.528-1.878,0.224-2.793c-0.256-0.769-0.359-1.603-0.84-2.274
						c1.585,1.422,3.999,1.069,5.737,0.128c1.475-0.798,2.852-2.301,2.546-3.95c0.623,2.056,2.644,3.606,4.791,3.674
						c2.148,0.068,4.263-1.349,5.016-3.362c-0.14,1.628,0.527,3.375,1.902,4.257c1.375,0.882,3.441,0.655,4.39-0.674
						C242.09,145.462,243.317,147.288,244.984,147.949z"/>
					<g>
						<path style="fill:#28292C;" d="M214.732,137.987c0.171-3.241,5.216-4.421,7.069-2.011c-1.193-4.46,5.778-8.382,7.146-2.945
							c1.283-6.4-8.895-5.74-7.887,0.279c-3.841-3.921-9.942,3.88-5.862,7.151C215.24,139.629,214.593,138.861,214.732,137.987z"/>
						<path style="fill:#28292C;" d="M242.361,134.932c1.022,1.276,1.364,3.019,1.109,4.633c1.061-0.372,2.282-0.257,3.255,0.306
							s1.68,1.565,1.886,2.67c0.11-1.171-0.205-2.406-0.984-3.288c-0.779-0.882-2.044-1.353-3.183-1.057
							c0.493-1.824-0.271-3.935-1.852-4.969c-1.581-1.035-3.863-0.871-5.24,0.424c0.875-0.501,1.752-0.558,2.727-0.262
							C241.087,133.694,241.563,134.357,242.361,134.932z"/>
					</g>
				</g>
				<g>
					<path style="fill:#28292C;" d="M237.703,157.609c1.131,1.705-2.147,1.98-3.245,1.882c5.582-1.914,0.414-2.129-0.651-8.077
						C235.269,153.324,236.09,155.76,237.703,157.609z"/>
					<g>
						<path style="fill:#363636;" d="M238.583,162.258c-3.518,2.23-8.679,2.013-11.981-0.51
							C226.407,170.528,238.161,171.132,238.583,162.258z"/>
						<path style="fill:#D84E88;" d="M227.845,166.186c2.364-2.419,7.101-2.198,8.845,0.837c-0.173,0.173-2.299,2.227-5.221,1.64
							C229.241,168.214,228.077,166.536,227.845,166.186z"/>
					</g>
					<g>
						<path style="fill:#28292C;" d="M239.16,152.758c-0.675,1.32-2.098-0.389-1.696-1.343
							C238.162,149.562,239.836,151.556,239.16,152.758z"/>
						<path style="fill:#363636;" d="M238.217,146.782c0.713-0.17,1.5-0.178,2.209,0.033c0.409,0.122,0.784,0.313,1.134,0.527
							c0.277,0.17,0.547,0.364,0.702,0.616c0.155,0.252,0.171,0.576-0.041,0.791c-0.262,0.266-0.772,0.276-1.17,0.148
							c-0.398-0.128-0.732-0.363-1.106-0.534c-0.296-0.136-0.616-0.231-0.934-0.326c-0.28-0.083-0.564-0.167-0.859-0.183
							c-0.771-0.042-1.449,0.385-1.922,0.871c-0.134,0.137-0.463,0.331-0.585,0.059c-0.087-0.194,0.186-0.48,0.303-0.625
							c0.334-0.415,0.783-0.768,1.303-1.027C237.551,146.982,237.877,146.863,238.217,146.782z"/>
					</g>
					<g>
						<path style="fill:#363636;" d="M228.314,148.91c-0.674-0.244-1.41-0.38-2.132-0.326c-0.723,0.054-1.43,0.31-1.915,0.76
							c-0.283,0.263-0.532,0.61-0.95,0.667c-0.478,0.064-0.927-0.335-0.965-0.745c-0.038-0.41,0.233-0.795,0.573-1.081
							c0.746-0.629,1.831-0.906,2.895-0.933c0.751-0.019,1.518,0.08,2.204,0.352c0.687,0.272,1.288,0.727,1.617,1.305
							c0.094,0.166,0.167,0.356,0.102,0.529c-0.04,0.106-0.181,0.235-0.325,0.232c-0.202-0.005-0.147-0.08-0.247-0.198
							C228.945,149.204,228.671,149.04,228.314,148.91z"/>
						<path style="fill:#28292C;" d="M226.864,151.794c0.445-0.302,1.059-0.359,1.532-0.101c0.473,0.257,0.762,0.835,0.643,1.359
							c-0.023,0.1-0.083,0.216-0.186,0.216c-0.071,0-0.127-0.056-0.174-0.109c-0.229-0.26-0.449-0.544-0.756-0.703
							s-0.739-0.148-0.946,0.13c-0.099,0.132-0.131,0.3-0.184,0.457c-0.052,0.156-0.14,0.318-0.294,0.377
							c-0.469,0.181-0.389-0.446-0.322-0.666C226.294,152.37,226.53,152.02,226.864,151.794z"/>
					</g>
				</g>
				<g>
					<g>
						<path style="fill:#E8C4AE;" d="M209.201,161.257c6.948,2.842,7.143-8.651,2.581-11.422c-2.833-2.115-6.921-0.047-6.664,3.702
							C205.162,156.447,206.447,160.073,209.201,161.257z"/>
						<path style="fill:#28292C;" d="M209.299,156.884c-0.425-1.333-0.007-3.439,1.781-3.116c0.351,0.046,0.746,0.403,0.539,0.767
							c-2.038,0.522-2.273,1.469-0.937,3.137C212.077,159.886,209.302,158.194,209.299,156.884z"/>
					</g>
				</g>
			</g>
		</g>
	</g>
	<g>
		<g>
			<path style="fill:#BB805F;" d="M412.392,263.424c-0.11-0.358-0.221-0.716-0.331-1.074
				c20.379,64.277,23.964,133.099,30.147,200.026c-3.769,0.668-7.59,1.047-11.417,1.134c-9.263-21.396-22.676-41.495-27.849-64.392
				c-2.247-9.603,0.123-19.885-1.332-29.606c-13.235-33.553-37.469-65.542-29.283-103.71c0.001,1.329,0.003,2.658,0.004,3.986"/>
			<path style="fill:#825947;" d="M432.949,365.356l-30.865,9.792c-0.144-1.928-0.462-4.229-1.119-6.769
				c-0.599-2.319-1.348-4.321-2.081-5.975C410.239,363.389,421.594,364.372,432.949,365.356z"/>
			<g>
				<path style="fill:#BB805F;" d="M423.399,452.573c0.571-12.892,9.579-5.381,17.45-8.074c4.782,14.345,13.81,24.734,28.221,29.971
					c2.053,0.668,4.707,1.456,5.248,3.833c-1.816,10.882-22.902,4.173-29.946,1.652c-6.988-4.707-14.553-9.153-21.333-14.038
					c-1.7-1.909,0.053-5.596-0.078-7.872C422.852,456.143,423.072,454.375,423.399,452.573z"/>
				<path style="fill:#28292C;" d="M420.07,485.015c-0.191-11.23-2.352-24.723,2.992-34.874
					c5.775,9.867,36.133,37.902,46.151,23.971c5.017,1.091,8.695,6.454,7.905,11.527"/>
			</g>
		</g>
		<g>
			<path style="fill:#BB805F;" d="M366.782,274.856c-10.442,10.254-11.378,24.94-15.001,38.182
				c-5.503,10.736-13.024,20.886-13.668,33.445c-0.679,6.531-0.322,13.628-4.066,19.023c-1.259,1.814-2.888,3.283-4.624,4.655
				c-5.318,4.202-9.765,9.407-12.903,15.414c-8.754,16.759-14.496,35.133-21.145,52.786c4.509,2.838,8.83,5.976,12.923,9.387
				c41.213-55.632,88.128-110.249,98.144-177.428"/>
			<polygon style="fill:#825947;" points="334.45,364.891 361.45,375.148 371.519,359.722 			"/>
			<g>
				<path style="fill:#BB805F;" d="M292.935,438.55c1.891-2.779,3.903-5.471,5.86-8.202c3.723,4.842,10.966,17.933,13.042,12.243
					c-2.527,6.926,3.322,19.55,9.233,27.831c2.221,4.202,8.654,6.347,8.747,11.37c-5.871,9.341-22.742-4.976-28.269-10.018
					c-4.633-7.037-9.901-14.055-14.274-21.176C286.509,447.779,291.487,441.384,292.935,438.55z"/>
				<path style="fill:#363636;" d="M281.106,459.646c4.152-10.436,3.426-16.289,12.269-23.595
					c1.526,11.33,18.732,48.901,33.345,39.907c4.208,2.94,7.3,4.681,4.616,9.057h-30.721"/>
			</g>
		</g>
		<g>
			<path style="fill:#73493F;" d="M355.326,181.517c-8.088-2.402-18.457,4.254-16.835,13.309
				c-10.217-7.882-26.019,11.186-16.966,20.348c-13.545,1.352-12.837,24.759,5.088,22.615
				c-11.383,13.056,12.033,25.289,20.607,13.946c10.285,20.248,38.622-3.209,31.498-20.263c12.201-0.064,11.709-22.013,2.202-26.299
				c3.637-4.664,4.837-14.502-1.912-17.334c4.357-14.509-16.313-21.381-19.025-5.081
				C358.432,182.261,356.878,181.817,355.326,181.517z"/>
			<path style="fill:#D84E88;" d="M365.672,171.439c-0.972,7.854,14.179,11.112,15.049,2.579
				C380.185,166.992,366.647,162.793,365.672,171.439z"/>
			<path style="fill:#73493F;" d="M361.097,149.495c4.466-26.406,47.11-24.425,46.521,3.198
				C404.163,181.067,355.177,183.869,361.097,149.495z"/>
			<g>
				<path style="fill:#825947;" d="M326.632,210.276c-0.308,2.328,0.221,4.82,1.719,6.628c-9.402,0.451-7.419,15.71,1.759,14.656
					c-5.376,8.527,6.82,18.476,13.402,11.493c2.139,5.415,8.873,8.501,13.715,4.409c-4.479,2.63-10.59-3.528-11.231-7.772
					c-6.51,5.857-20.936-1.903-11.6-9.769c-8.514,2.038-13.208-11.117-2.544-11.158c-5.336-4.352-2.938-14.344,2.109-18.031
					C329.389,201.518,327.474,206.087,326.632,210.276z"/>
				<path style="fill:#825947;" d="M337.48,218.648c0.003,2.639,1.475,5.448,4.002,6.207c-6.378,7.19,5.911,13.309,11.308,8.268
					c-6.051,1.941-14.779-2.477-7.944-8.61c-7.18,0.611-6.231-10.942-3.673-15.086C339.238,212.111,337.517,215.225,337.48,218.648z
					"/>
			</g>
		</g>
		<g>
			<path style="fill:#52209C;" d="M442.206,219.813c2.647,6.895,4.721,14.385,7.507,21.141
				c12.467,6.345,31.542,13.327,44.077,19.514c-0.174,5.449-2.339,10.865-3.306,16.25c-23.749-7.464-61.259-12.397-67.01-30.208
				c-5.38-14.602-15.519-29.618-9.621-45.721C423.251,184.283,438.151,211.253,442.206,219.813z"/>
			<path style="fill:#411285;" d="M426.855,203.448c2.761,16.153,3.804,32.699,0.01,48.791c-3.48-4.839-5.775-10.523-6.631-16.422
				L426.855,203.448z"/>
			<path style="fill:#411285;" d="M449.714,240.954c-1.619,0.513-5.621,2.889-6.467,4.334c0.521-1.935,4.39-4.439,6.134-5.426"/>
		</g>
		<g>
			<path style="fill:#52209C;" d="M416.971,278.896c4.731-25.228,15.457-73.298,6.557-82.318
				c-19.617-9.188-43.246-5.544-64.512-5.098c-28.568,0.065,1.319,70.912,3.027,86.221"/>
			<g>
				<path style="fill:#411285;" d="M390.227,207.147c-1.511,2.564,1.864,5.315,4.184,3.577
					C398.369,207.494,392.9,203.084,390.227,207.147z"/>
				<path style="fill:#411285;" d="M391.196,221.815c-1.511,2.564,1.864,5.315,4.184,3.577
					C399.338,222.161,393.869,217.752,391.196,221.815z"/>
				<path style="fill:#411285;" d="M390.227,235.675c-1.511,2.564,1.864,5.315,4.184,3.577
					C398.369,236.021,392.9,231.611,390.227,235.675z"/>
			</g>
			<path style="fill:#411285;" d="M354.732,218.421c1.961-1.477,3.539-3.413,4.852-5.487c-1.011,5.014-2.298,10.239-5.746,14.017
				c-0.718,0.786-1.669,1.547-2.724,1.41c-1.308-0.169-2.035-1.589-2.391-2.859c-0.477-1.703-1.384-3.927,0.504-4.645
				C351.205,220.106,352.978,219.742,354.732,218.421z"/>
		</g>
		<g>
			<g>
				<path style="fill:#BB805F;" d="M339.26,119.406c-0.108-2.646-5.405-25.981-8.766-16.657c-1.124-3.444-5.345-3.281-4.305,0.851
					c-1.333-4.335-4.542-1.582-3.655,1.8c-6.339-5.772,3.61,20.77,2.337,23.25l10.889,3.942c5.721-1.4,5.447-8.039,8.745-11.847
					c0.408-2.046,1.311-3.685,2.684-5.226c0.503-0.73-0.133-1.407-0.951-1.271C343.115,114.474,341.396,117.558,339.26,119.406z"/>
				<path style="fill:#825947;" d="M337.707,120.417c-1.525,1.197-2.78,2.812-3.265,4.689c-0.139,0.538-0.214,1.091-0.288,1.642
					c-0.304-0.737-0.269-1.582-0.04-2.346c0.229-0.764,0.64-1.46,1.079-2.126c0.46-0.699,0.966-1.386,1.639-1.884
					c0.544-0.403,1.176-0.667,1.801-0.926c0.254-0.106,0.51-0.212,0.777-0.277C338.952,119.69,338.242,119.99,337.707,120.417z"/>
				<path style="fill:#825947;" d="M328.352,120.065c-1.169-5.417-2.813-11.189-6.162-15.675
					C324.428,109.488,326.313,114.848,328.352,120.065z"/>
				<path style="fill:#825947;" d="M326.818,105.007c1.965,4.091,3.391,8.389,4.617,12.72c-0.441-5.235-2.596-10.525-5.528-14.856
					C326.142,103.621,326.534,104.276,326.818,105.007z"/>
				<path style="fill:#825947;" d="M332.168,106.396c1.122,3.141,2.027,6.357,3.047,9.532c-0.636-4.73-1.803-10.126-4.959-13.82
					C330.878,103.547,331.639,104.913,332.168,106.396z"/>
			</g>
			<g>
				<path style="fill:#52209C;" d="M330.712,174.13c-2.371-1.393-4.707-2.975-4.707-2.975c4.441-13.211,8.986-25.713,12.507-39.182
					c-4.525-1.119-9.63-3.135-13.934-4.924c-34.373,52.2-30.688,60.565,23.41,93.944c10.586,3.909,17.337-19.142,16.923-27.691
					c0.12-1.109-0.416-2.037-1.462-2.431C352.187,185.062,341.416,180.912,330.712,174.13z"/>
				<path style="fill:#411285;" d="M326.147,171.09c-0.227,0.649-0.455,1.3-0.771,1.91c-0.666,1.285-1.725,2.362-2.997,3.051
					c2.235-0.18,4.281-1.829,4.929-3.976"/>
				<path style="fill:#411285;" d="M311.33,173.114c1.173,1.902,1.078,5.504-1.261,6.426c4.272-1.378,4.997-8.753-0.489-8.274
					C309.69,171.885,310.956,172.496,311.33,173.114z"/>
			</g>
		</g>
		<g>
			<g>
				<path style="fill:#363636;" d="M361.163,275.481c-19.173,24.835-27.986,57.998-27.268,89.364c30.675,2.547,71.24,2.144,102.32,0
					c-1.297-13.98-7.296-68.796-18.367-89.364"/>
				<path style="fill:#28292C;" d="M394.647,307.572c0.45-1.057,1.192-2.304,2.336-2.202c0.681,0.061,1.212,0.611,1.587,1.183
					c1.572,2.395,1.468,5.478,1.307,8.339c-0.655,11.685-1.31,23.371-1.965,35.056c-0.043,0.772-0.419,1.819-1.174,1.649
					c-3.832-10.713,0.714-22.622-0.761-33.904c-0.112-0.855-0.554-1.945-1.41-1.84c-3.508,6.779-6.827,13.655-9.95,20.62
					c-1.275,2.843-2.775,8.595-5.238,10.578c-0.859,0.691-1.698,1.098-2.3-0.408c-0.566-1.415,0.989-3.286,1.6-4.511
					c3.643-7.3,7.145-14.671,10.503-22.106C391.05,315.893,392.871,311.742,394.647,307.572z"/>
			</g>
			<path style="fill:#28292C;" d="M411.658,366.1c13.224-10.732,15.346-28.53,18.946-44.011l6.325,43.128L411.658,366.1z"/>
		</g>
		<g>
			<g>
				<path style="fill:#BB805F;" d="M377.974,166.386c3.122-0.049,6.454-0.143,9.489,0.72c2.214,0.63,3.747,1.984,4.581,4.131
					c1.114,2.869,1.444,6.06,2.101,9.051c0.504,2.295,1.09,4.572,1.78,6.818c0.42,1.367,0.901,2.709,1.363,4.061
					c0.294,0.861-0.293,1.114-0.978,1.599c-0.701,0.497-1.444,0.932-2.185,1.367c-0.684,0.401-1.375,0.806-2.134,1.034
					c-1.046,0.314-2.163,0.275-3.253,0.2c-1.489-0.102-2.988-0.267-4.404-0.737c-2.916-0.968-5.338-3.286-6.489-6.129
					c-0.615-1.52-0.376-3.356-0.414-4.983c-0.044-1.912-0.08-3.825-0.081-5.738C377.348,173.975,377.483,170.162,377.974,166.386z"
					/>
				<path style="fill:#825947;" d="M378.43,172.903c2.661,6.802,9.374,11.641,16.798,11.349c-0.716-2.471-1.197-5.009-1.436-7.571"
					/>
			</g>
			<g>
				<path style="fill:#F1F1F1;" d="M394.459,190.469c-0.582,2.004-1.792,3.913-3.639,4.883c2.583,1.069,4.571,3.471,5.139,6.209
					c6.732-4.516,6.091-15.393-1.168-18.188C394.932,185.629,395.263,188.206,394.459,190.469z"/>
				<path style="fill:#F1F1F1;" d="M377.317,183.702c-11.784,8.596,1.49,17.73,11.043,18.963c-0.152-2.818,0.99-5.414,2.896-7.438
					C385.594,193.426,380.316,188.69,377.317,183.702z"/>
			</g>
		</g>
		<g>
			<path style="fill:#BB805F;" d="M387.838,179.281c9.764,1.486,18.445-1.843,18.858-12.01c0.343-8.451-0.038-23.414-9.715-25.48
				c-11.653-2.488-26.744,2.658-24.549,17.453C373.695,167.761,377.686,177.993,387.838,179.281z"/>
			<g>
				<path style="fill:#73493F;" d="M376.182,165.198c3.607-5.112,4.802-11.792,4.77-17.964c7.481,3.368,16.073,4.21,24.066,2.359
					c-3.825-15.45-25.441-17.781-35.808-7.228c-5.705,5.447-6.199,15.972-1.378,22.113
					C369.849,166.977,374.049,168.221,376.182,165.198z"/>
				<g>
					<path style="fill:#825947;" d="M375.539,143.688c1.884,0.93,3.83,1.912,5.143,3.553c-0.807-3.948-11.535-10.149-14.498-8.055
						C369.13,140.81,372.542,142.037,375.539,143.688z"/>
					<path style="fill:#825947;" d="M371.298,162.932c1.65-5.997,4.045-11.916,4.264-18.181
						C377.394,150.684,374.184,157.688,371.298,162.932z"/>
					<path style="fill:#825947;" d="M365.431,153.405c-0.459,4.98,0.072,10.85,3.477,14.739c-7.108-6.056-7.005-19.045-0.164-25.222
						C367.223,146.082,365.505,149.651,365.431,153.405z"/>
					<path style="fill:#825947;" d="M402.133,140.908c-6.74,3.478-16.31,3.784-23.159,0.245
						C384.112,146.016,396.114,146.837,402.133,140.908z"/>
					<path style="fill:#825947;" d="M373.555,137.415c5.688,0.064,11.83-0.591,16.425-4.237c-3.581,5.983-11.343,5.361-17.216,4.051
						"/>
				</g>
			</g>
			<g>
				<g>
					<path style="fill:#363636;" d="M398.978,153.31c0.706-0.247,1.433-0.457,2.18-0.505c0.747-0.048,1.52,0.076,2.162,0.46
						c0.252,0.15,0.486,0.346,0.625,0.604c0.139,0.258,0.168,0.588,0.022,0.842c-0.035,0.061-0.081,0.118-0.145,0.149
						c-0.074,0.035-0.16,0.029-0.241,0.02c-0.9-0.105-1.728-0.542-2.614-0.729c-0.969-0.204-2-0.097-2.907,0.3
						c-0.157,0.069-0.349,0.144-0.488,0.043c-0.095-0.069-0.125-0.206-0.089-0.318C397.642,153.695,398.561,153.456,398.978,153.31z
						"/>
					<path style="fill:#28292C;" d="M400.301,159.259c-1.09,1.005-1.834-1.091-1.126-1.847
						C400.47,155.915,401.351,158.364,400.301,159.259z"/>
				</g>
				<g>
					<path style="fill:#363636;" d="M391.291,154.556c-0.713-0.228-1.445-0.419-2.193-0.446s-1.518,0.117-2.149,0.518
						c-0.248,0.157-0.476,0.359-0.608,0.62s-0.152,0.592,0,0.842c0.037,0.06,0.084,0.116,0.149,0.145
						c0.075,0.033,0.161,0.025,0.241,0.013c0.897-0.129,1.712-0.589,2.594-0.799c0.963-0.23,1.997-0.151,2.914,0.222
						c0.159,0.065,0.353,0.134,0.489,0.03c0.094-0.072,0.12-0.21,0.08-0.321C392.637,154.905,391.712,154.691,391.291,154.556z"/>
					<path style="fill:#28292C;" d="M387.987,159.767c1.119,1.024,1.872-1.124,1.146-1.894
						C387.802,156.346,386.91,158.855,387.987,159.767z"/>
				</g>
				<path style="fill:#28292C;" d="M395.658,157.993c0.147,2.806,3.038,3.494,4.89,4.993c0.839,0.679,0.775,2.052-0.182,2.552
					c-1.01,0.527-2.482,0.49-3.408,0.036c9.063-1.352-3.375-3.106-1.575-9.175C395.463,156.933,395.554,157.464,395.658,157.993z"/>
				<path style="fill:#28292C;" d="M400.818,168.192c-4.542,5.131-9.409,3.403-11.179-0.755
					C390.319,173.753,398.931,173.78,400.818,168.192z"/>
			</g>
			<g>
				<g>
					<g>
						<path style="fill:#BB805F;" d="M372.28,170.968c7.294,1.777,5.778-9.617,0.854-11.679c-3.116-1.67-6.852,0.982-6.039,4.652
							C367.571,166.811,369.381,170.206,372.28,170.968z"/>
					</g>
					<path style="fill:#28292C;" d="M371.727,166.628c-0.618-1.255-0.518-3.399,1.298-3.346c0.354-0.007,0.798,0.288,0.647,0.678
						c-1.938,0.819-2.029,1.79-0.46,3.242C374.921,169.184,371.924,167.924,371.727,166.628z"/>
				</g>
			</g>
		</g>
	</g>
	<g>
		<g>
			<polyline style="fill:#E7CBFC;" points="527.052,456.818 533.791,472.542 551.668,470.858 548.205,453.355 			"/>
			<g>
				<path style="fill:#363636;" d="M522.541,284.216c9.192,58.949,19.886,114.945,27.723,173.725
					c-9.915,2.119-23.499,2.494-23.499,2.494c-15.798-26.325-24.754-60.699-22.716-90.879
					c-19.735-29.142-33.101-66.069-18.201-100.299L522.541,284.216z"/>
				<path style="fill:#28292C;" d="M515.951,367.562c-0.89,3.71,1.991,7.636,5.796,7.899c-4.154-2.854-4.038-8.638-2.576-12.956
					C517.421,363.532,516.517,365.688,515.951,367.562z"/>
				<path style="fill:#28292C;" d="M493.476,308.503c5.639,0.275,11.327-0.476,16.701-2.207c-3.691,3.232-8.421,5.259-13.306,5.703
					c-1.243,4.473-2.585,8.919-4.024,13.334c-1.457,4.471-3.087,9.036-6.214,12.549c-0.107-1.622-0.215-3.244-0.322-4.866"/>
			</g>
			<g>
				<path style="fill:#28292C;" d="M524.431,486.478c-1.697-6.332-0.047-16.269,4.243-21.549c2.81-1.657,4.508,0.312,8.189,0.552
					c7.281,0.474,9.19-3.957,14.636-5.047c2.264,0.033,4.004,1.915,5.528,3.59c4.397,4.833,9.617,9.233,15.905,11.01
					c6.566,0.93,12.942,3.879,12.604,11.444"/>
				<g>
					<path style="fill:#FFFFFF;" d="M549.349,466.961c-0.95,0.931-1.925,2.049-1.892,3.379c0.005,0.21,0.043,0.434,0.185,0.589
						c0.286,0.313,0.804,0.183,1.181-0.013c1.789-0.931,2.931-2.723,4.361-4.146c0.941-0.936,2.027-1.725,3.208-2.331
						c0.626-0.321,1.361-0.693,1.484-1.385c0.156-0.874-0.742-1.37-1.507-1.294c-0.769,0.076-1.535,0.741-2.154,1.157
						C552.461,464.095,550.857,465.484,549.349,466.961z"/>
					<path style="fill:#FFFFFF;" d="M560.817,466.407c0.408-0.221,0.835-0.435,1.298-0.471c0.462-0.036,0.971,0.145,1.196,0.55
						c0.278,0.501,0.036,1.143-0.339,1.577c-0.675,0.782-1.694,1.153-2.581,1.682c-1.341,0.799-2.388,1.973-3.468,3.079
						c-0.721,0.739-2.245,2.678-3.472,2.131c-2.089-0.931,2.294-4.916,2.951-5.487C557.757,468.292,559.24,467.262,560.817,466.407z
						"/>
					<path style="fill:#FFFFFF;" d="M559.26,475.245c1.839-2.01,3.766-4.082,6.29-5.107c0.426-0.173,0.886-0.316,1.34-0.246
						c0.454,0.07,0.896,0.412,0.941,0.869c0.035,0.356-0.166,0.692-0.397,0.965c-1.153,1.361-3.097,1.792-4.377,3.035
						c-0.775,0.753-1.315,1.806-2.304,2.24c-0.326,0.143-0.699,0.207-1.041,0.107c-0.341-0.1-0.639-0.388-0.685-0.741"/>
				</g>
			</g>
		</g>
		<g>
			<polyline style="fill:#E7CBFC;" points="397.139,435.759 389.277,453.916 404.011,461.275 411.405,449.889 			"/>
			<g>
				<path style="fill:#363636;" d="M461.534,278.109c-16.246,20.287-17.09,50.017-22.063,74.336
					c-3.616,10.348-11.853,18.261-18.531,26.953c-13.266,18.196-22.648,40.173-27.234,62.171c4.182,3.83,10.849,9.379,16.631,12.16
					c44.198-46.022,83.274-108.784,91.311-173.208L461.534,278.109z"/>
				<path style="fill:#28292C;" d="M475.052,291.49c-3.243,6.255-12.498,7.004-18.224,3.919
					C460.435,304.857,474.849,301.043,475.052,291.49z"/>
				<path style="fill:#28292C;" d="M452.431,363.89c1.125-2.293,6.43-6.882,9.103-6.116c-7.737-5.039-15.211,5.803-9.92,12.36
					C451.408,368.031,451.565,365.775,452.431,363.89z"/>
			</g>
			<g>
				<path style="fill:#363636;" d="M426.965,486.478c1.353-13.907-19.404-7.173-16.477-24.008c1.204-7.444-8.536-3.642-12.376-6.686
					c-3.71-2.436-3.671-6.69-7.756-8.037c-6.67,1.344-13.846,8.984-16.566,14.95c8.789,8.024,17.109,14.963,27.342,23.782"/>
				<g>
					<path style="fill:#FFFFFF;" d="M409.45,463.613c0.826,0.004,1.79,0.15,2.191,0.873c0.127,0.23,0.179,0.515,0.079,0.758
						c-0.214,0.521-0.917,0.57-1.48,0.561c-2.344-0.038-4.694,0.388-6.875,1.246c-0.376,0.148-0.754,0.31-1.156,0.345
						c-1.481,0.129-1.65-1.798-0.604-2.475c0.495-0.32,1.185-0.394,1.747-0.517c0.942-0.206,1.887-0.395,2.841-0.536
						C407.271,463.708,408.36,463.608,409.45,463.613z"/>
					<path style="fill:#FFFFFF;" d="M405.428,469.738c-0.751,0.309-1.475,0.731-2.004,1.347c-0.241,0.281-0.42,0.752-0.13,0.982
						c0.109,0.086,0.255,0.106,0.393,0.107c0.595,0.002,1.14-0.303,1.673-0.567c1.836-0.91,3.871-1.416,5.92-1.473
						c0.227-0.006,0.461-0.009,0.667-0.105c0.358-0.168,0.542-0.633,0.395-1c-0.405-1.012-2.346-0.337-3.082-0.222
						C407.96,469.009,406.651,469.235,405.428,469.738z"/>
					<path style="fill:#FFFFFF;" d="M406.47,475.051c-0.233,0.261-0.463,0.641-0.271,0.933c0.113,0.173,0.337,0.237,0.544,0.247
						c0.461,0.021,0.904-0.162,1.318-0.365c1.719-0.845,3.306-2.13,5.212-2.321c0.376-0.038,0.764-0.032,1.117-0.167
						c0.84-0.322,0.731-1.105,0.13-1.597c-0.474-0.388-0.912-0.368-1.49-0.269c-1.598,0.272-3.124,0.841-4.477,1.739
						C407.786,473.76,407.083,474.364,406.47,475.051z"/>
				</g>
			</g>
		</g>
		<g>
			<g>
				<path style="fill:#E7CBFC;" d="M591.744,213.559c-12.458,7.997-36.244,5.961-50.512,6.107
					c-10.049,0.102-7.995-4.876-10.869-11.875c-2.052-5.756-3.149-13.944,0.7-19.097c2.602-1.907,1.22-1.686,4.066-1.258
					c11.643,1.752,29.915,4.395,41.276,7.648c2.301-14.163,3.443-28.311,5.744-42.475c4.004,0.498,9.933,1.86,13.937,2.358
					C597.45,174.362,599.456,204.666,591.744,213.559z"/>
				<path style="fill:#DDB8FC;" d="M539.813,192.49c4.642,7.811,7.351,18.058,6.721,27.009c-3.566,0.505-7.486-0.144-10.693-1.865"
					/>
				<path style="fill:#DDB8FC;" d="M581.497,156.824c1.408,0.852,3.83,2.078,7.08,2.604c3.388,0.548,6.174,0.093,7.798-0.299
					c-1.45,0.634-4.245,1.628-7.86,1.485c-3.356-0.132-5.905-1.184-7.294-1.88"/>
				<path style="fill:#DDB8FC;" d="M576.406,195.083c-0.266,3.187-0.168,10.279,0.429,13.421
					c-1.482-3.228-2.216-10.269-2.128-13.819"/>
			</g>
			<g>
				<path style="fill:#BB805F;" d="M591.558,157.598c-0.621,0.116-1.258,0.224-1.88,0.113c-0.565-0.1-1.083-0.374-1.586-0.65
					c-1.866-1.021-3.689-2.12-5.463-3.293c0.152-0.888,0.353-1.768,0.602-2.634c0.154-0.534,0.328-1.069,0.629-1.536
					c0.371-0.577,0.916-1.02,1.482-1.408c1.721-1.179,3.775-1.942,5.861-1.887c1.035,0.027,2.054,0.251,3.054,0.516
					c1.668,0.44,3.383,1.043,4.544,2.318c0.827,0.908,1.297,2.076,1.751,3.216c0.219,0.55,0.438,1.1,0.656,1.65
					c0.186,0.469,0.397,0.698-0.036,0.99c-0.819,0.552-2.213,0.754-3.16,1.038C595.889,156.667,593.735,157.178,591.558,157.598z"/>
				<path style="fill:#825947;" d="M598.098,155.567c-1.799-0.079-3.502-0.908-4.902-2.04c-0.121-0.098-0.244-0.202-0.311-0.343
					c-0.08-0.167-0.07-0.361-0.047-0.544c0.047-0.368,0.143-0.727,0.239-1.085c0.368-1.371,0.751-2.776,1.589-3.922
					c0.104-0.142,0.216-0.281,0.359-0.382c0.159-0.113,0.349-0.174,0.542-0.202c0.826-0.122,1.619,0.328,2.316,0.786
					c1.136,0.746,2.261,1.594,2.933,2.775c0.311,0.546,0.514,1.145,0.696,1.746c0.222,0.734,0.642,2.096-0.226,2.534
					C600.31,155.383,599.191,155.615,598.098,155.567z"/>
				<g>
					<path style="fill:#52209C;" d="M614.144,133.307l-22.598,23.446c-0.977,1.014-2.663,0.066-2.304-1.296l8.126-30.872"/>
					<g>
						<path style="fill:#E1721B;" d="M598.808,92.491c3.932,9.818,4.777,20.848,2.387,31.15c-0.491-5.478-1.37-10.966-3.317-16.109
							c-1.948-5.143-5.023-9.952-9.35-13.347c-0.047-0.036,0.053-0.111,0.075-0.056"/>
						<path style="fill:#E1721B;" d="M648.405,121.108c-5.56,0.476-11.131,0.954-16.613,1.998
							c-4.271,0.814-8.476,1.971-12.562,3.457c-2.085,0.758-4.168,1.618-5.921,2.977c11.957-3.625,25.209-2.798,36.623,2.284"/>
						<path style="fill:#D84E88;" d="M618.424,83.427c0.104,4.816-0.537,9.627-1.578,14.33c-2.144,9.687-6.002,18.992-11.341,27.355
							c0.968-3.327,1.839-6.685,2.499-10.086c1.115-5.746,1.626-11.642,1.04-17.466c-0.586-5.824-2.296-11.583-5.389-16.552"/>
						<path style="fill:#52209C;" d="M655.897,108.013c-7.353-0.716-14.827,0.783-21.617,3.695
							c-6.79,2.911-12.926,7.199-18.456,12.098c1.316-2.376,3.037-4.498,4.686-6.657c3.339-4.372,6.417-8.953,10.055-13.079
							c5.358-6.077,11.901-11.104,19.153-14.716"/>
						<path style="fill:#E1721B;" d="M634.994,84.183c5.68,5.811,10.459-6.703,3.174-7.353
							C634.99,76.747,632.301,82.133,634.994,84.183z"/>
						<path style="fill:#D84E88;" d="M664.837,119.368c0.295,1.522,1.813,2.667,3.364,2.661c0.453-0.002,0.914-0.092,1.307-0.319
							c1.082-0.625,1.355-2.039,1.482-3.282C671.389,114.511,663.969,114.886,664.837,119.368z"/>
						<path style="fill:#52209C;" d="M578.462,111.436c-0.59,6.931,8.524,4.769,7.182-1.203
							C583.487,106.768,579.122,107.028,578.462,111.436z"/>
					</g>
				</g>
				<path style="fill:#BB805F;" d="M586.989,154.714c3.008-0.974,5.455-3.525,6.304-6.57c0.365-1.31,0.734-2.77,1.483-3.932
					c0.456-0.707,1.116-1.253,1.727-1.831c1.669-1.577,3.098-3.65,3.068-5.946c-0.005-0.387-0.065-0.803-0.333-1.081
					c-0.359-0.373-0.98-0.363-1.444-0.134c-0.464,0.229-0.814,0.631-1.179,0.998c-2.262,2.283-5.352,3.495-8.193,4.996
					c-0.857,0.453-1.712,0.947-2.381,1.648c-0.998,1.046-1.498,2.457-1.971,3.823c-0.578,1.666-0.724,4.678-1.302,6.344"/>
				<g>
					<path style="fill:#BB805F;" d="M598.65,142.83c-2.044,0.262-3.069,2.509-1.529,4.039c-1.945-0.37-3.693,1.972-2.357,3.588
						c-5.577,1.773,9.007,7.298,7.527,2.555c1.565-0.07,3.329-2.093,1.71-3.251c2.296,0.061,2.945-3.024,1.402-4.434
						C614.63,141.424,595.368,136.027,598.65,142.83z"/>
					<g>
						<path style="fill:#825947;" d="M605.408,145.376c-2.131-1.138-4.353-2.208-6.745-2.541c0.451-0.122,0.93-0.032,1.386,0.072
							c2.018,0.458,4.037,1.215,5.53,2.648"/>
						<path style="fill:#825947;" d="M598.129,147.131c-0.35-0.059-0.705-0.102-1.045-0.204c2.316-1.072,5.864,1.128,7.141,3.133
							C602.469,148.632,600.412,147.471,598.129,147.131z"/>
						<path style="fill:#825947;" d="M598.298,150.946c-1.154-0.291-2.363-0.277-3.531-0.507c2.603-0.511,5.908,0.414,7.538,2.6
							C601.158,152.041,599.743,151.357,598.298,150.946z"/>
					</g>
				</g>
			</g>
		</g>
		<g>
			<path style="fill:#E7CBFC;" d="M459.053,278.97c-2.469-28.752-2.773-63.8,10.903-93.229c5.726-6.961,21.569-6.174,33.456-4.676
				c32.61,4.108,36.17,8.311,36.613,9.721c8.532,27.156-7.731,64.774-16.417,94.407c-6.046,1.986-14.385,3.951-24.385,4.042
				C480.527,289.406,466.28,282.934,459.053,278.97z"/>
			<path style="fill:#DDB8FC;" d="M459.472,236.383c1.328,7.21,2.002,15.668,6.874,21.435c19.479,10.039,44.242,10.26,64.783,3.656
				c0.584-1.443,5.343-16.431,5.048-16.525c-15.036-5.644-32.017-7.273-47.28-12.09c-1.106-12.549-0.203-26.525-6.036-37.938
				c-4.639,5.008-12.585,13.021-16.711,18.984C459.033,219.534,457.799,227.983,459.472,236.383z"/>
			<path style="fill:#DDB8FC;" d="M511.213,203.961c-0.076,15.24-1.332,33.071-4.979,52.699c-2.215,11.92-4.998,22.808-7.99,32.579
				C502.567,260.813,506.89,232.387,511.213,203.961z"/>
			<g>
				<g>
					<path style="fill:#52209C;" d="M504.415,189.117c0.385,3.068,0.772,6.148,1.576,9.133c0.617,2.289,1.486,4.528,2.742,6.545
						c0.604,0.97,1.334,1.797,2.047,2.678c0.229,0.283,2.049,2.506,2.379,2.348c-0.858,0.41-1.716,0.819-2.574,1.229
						c-2.903-3.066-5.433-6.551-6.961-10.487c-1.703-4.39-2.1-9.161-2.48-13.855c-0.014,0.121-0.028,0.242-0.042,0.363"/>
					<path style="fill:#52209C;" d="M513.278,208.046c1.289-1.095,2.18-2.58,2.964-4.078c2.177-4.158,3.717-8.649,4.551-13.268
						c0.668,0.009,1.335,0.018,2.003,0.027c-0.018,1.696-0.209,3.391-0.569,5.048c-0.85,3.918-2.623,7.566-4.38,11.17
						c-0.618,1.268-1.246,2.551-2.154,3.63"/>
				</g>
				<path style="fill:#52209C;" d="M512.151,212.407c4.62,21.615-11.787,41.649-5.162,63.476c4.293,2.1,8.585,4.199,12.878,6.299
					c1.893-5.211,3.852-10.397,5.878-15.557c-15.089-16.627,1.065-37.505-7.108-54.902"/>
				<path style="fill:#52209C;" d="M519.248,205.514c2.966,0.5,1.156,6.095,0.797,8.217c-0.188,0.906-4.574,1.304-6.885,1.481
					c-0.786,0.06-1.56-0.243-2.101-0.816C503.83,206.74,511.192,206.8,519.248,205.514z"/>
			</g>
		</g>
		<g>
			<g>
				<path style="fill:#BB805F;" d="M536.658,246.967c3.843-2.648,7.575-6.09,12.542-5.802c2.349,0.063,4.602-1.376,6.835-1.335
					c2.196,3.332-6.134,5.759-8.003,7.747c-2.302,3.678,9.925,1.576,11.76,1.219c1.95-0.841,4.012,0.751,2.347,2.651
					c2.011-0.67,2.618,2.305,1.031,3.259c2.106,0.637,1.066,3.388-0.495,4.138c5.089,6.226-23.027,6.457-27.803-0.733"/>
				<g>
					<path style="fill:#825947;" d="M551.308,254.16c3.864,0.367,7.405-0.848,10.801-2.712c-3.353,2.983-9.458,4.491-13.508,2.192
						C548.601,253.639,550.575,254.139,551.308,254.16z"/>
					<path style="fill:#825947;" d="M562.253,255.146c-4.033,1.607-9.01,2.856-13.217,1.485c4.405,2.309,10.283,0.313,14.276-1.812
						C563.094,254.591,562.484,255.045,562.253,255.146z"/>
					<path style="fill:#825947;" d="M562.675,258.844c-1.947,0.652-4.633,1.314-7.869,1.427c-2.135,0.075-4.015-0.108-5.556-0.366
						c1.893,0.019,3.926-0.031,6.081-0.183C557.985,259.536,560.441,259.223,562.675,258.844z"/>
				</g>
			</g>
			<g>
				<path style="fill:#E7CBFC;" d="M457.784,202.17c-0.838,11.137,2.549,24.524,3.81,35.538c0.838,5.492,2.331,13.213,4.457,14.857
					c13.851,10.709,48.591,10.689,70.401,7.538c0.059-3.721,1.037-10.339,1.096-14.06c-10.748-2.226-31.213-8.456-51.973-11.115
					c1.116-9.584,2.628-51.593-10.215-52.216C465.145,183.996,458.717,192.654,457.784,202.17z"/>
				<path style="fill:#DDB8FC;" d="M535.963,245.702c-0.924,1.364-2.215,3.631-2.92,6.697c-0.81,3.52-0.477,6.475-0.154,8.176
					C533.913,255.617,534.938,250.66,535.963,245.702"/>
				<path style="fill:#DDB8FC;" d="M485.575,234.929c-2.987,0.698-6.25,1.723-9.011,3.09c2.488-2.374,5.687-3.425,9.087-3.932"/>
			</g>
		</g>
		<g>
			<g>
				<path style="fill:#BB805F;" d="M508.404,166.084c-2.271,6.145-8.807,18.272-8.807,18.273c2.228,2.322,5.019,4.984,7.814,6.667
					c4.618,2.65,2.131,8.587,3.83,12.589c9.468-8.279,9.34-22.542,12.482-34.049"/>
				<path style="fill:#825947;" d="M507.968,169.471c0.927,6.746,6.823,11.224,13.214,12.445c0,0,1.167-6.166,1.984-8.98"/>
			</g>
			<g>
				<path style="fill:#DDB8FC;" d="M505.194,185.128c9.737,14.862,6.869,0.03,6.019,18.833c-3.368-7.359,2.463-11.185-9.574-8.2
					c-3.998-5.456-12.288-16.651,1.614-18.453C503.509,179.943,503.962,182.704,505.194,185.128z"/>
				<path style="fill:#DDB8FC;" d="M513.766,200.39c3.18-5.913,5.328-12.339,7.458-18.689c5.759,4.222,3.946,11.336,3.958,17.368
					c-0.781-3.345-4.284-3.727-7.174-3.456c-2.175,3.465-2.866,6.512-6.794,8.348C512.138,202.149,512.762,202.195,513.766,200.39z"
					/>
			</g>
		</g>
		<g>
			<path style="fill:#BB805F;" d="M517.364,175.463c9.668,2.022,18.519-0.824,19.491-10.952c0.808-8.42,1.254-23.381-8.294-25.977
				c-11.498-3.127-26.85,1.179-25.475,16.073C503.878,163.18,507.298,173.617,517.364,175.463z"/>
			<g>
				<path style="fill:#363636;" d="M507.535,161.755c1.929-2.714,1.332-5.447,0.434-8.334c1.49-1.752,2.512-5.931,2.628-8.139
					c8.066-4.126,14.896-2.2,23.729-2.266c-4.702-11.085-20.671-15.752-33.526-5.441
					C491.94,144.682,494.276,166.574,507.535,161.755z"/>
				<path style="fill:#28292C;" d="M531.215,138.172c-8.291-2.099-17.707-0.142-24.444,5.125c4.303-7.354,14.924-7.422,22.506-6.966
					c0.28,0.23,0.569,0.48,0.862,0.753C530.537,137.454,530.895,137.82,531.215,138.172z"/>
				<path style="fill:#28292C;" d="M525.247,133.8c-8.862-1.954-18.312,1.866-23.815,8.969c3.722-6.46,11.562-10.547,18.924-10.561
					c0.756,0.149,1.598,0.357,2.501,0.652C523.754,133.152,524.553,133.477,525.247,133.8z"/>
			</g>
			<g>
				<g>
					<path style="fill:#363636;" d="M529.018,150.52c0.542-0.516,1.118-1.006,1.779-1.357c0.661-0.351,1.417-0.556,2.16-0.47
						c0.291,0.034,0.585,0.115,0.818,0.293c0.233,0.178,0.395,0.466,0.367,0.758c-0.007,0.07-0.025,0.141-0.071,0.195
						c-0.053,0.063-0.134,0.092-0.212,0.117c-0.864,0.274-1.798,0.217-2.683,0.411c-0.967,0.213-1.863,0.734-2.526,1.47
						c-0.115,0.127-0.259,0.275-0.427,0.24c-0.115-0.024-0.199-0.137-0.212-0.254C527.959,151.42,528.698,150.824,529.018,150.52z"
						/>
					<path style="fill:#28292C;" d="M530.758,154.793c-0.548,1.377-2.126-0.191-1.815-1.178
						C529.464,151.704,531.318,153.532,530.758,154.793z"/>
				</g>
				<g>
					<path style="fill:#363636;" d="M522.175,150.966c-0.699-0.267-1.419-0.498-2.164-0.567c-0.745-0.069-1.522,0.033-2.174,0.399
						c-0.256,0.143-0.495,0.332-0.641,0.586c-0.146,0.254-0.185,0.583-0.046,0.841c0.033,0.062,0.078,0.121,0.141,0.153
						c0.073,0.037,0.159,0.034,0.24,0.027c0.903-0.08,1.742-0.493,2.634-0.655c0.974-0.176,2.002-0.041,2.897,0.382
						c0.155,0.073,0.345,0.153,0.486,0.057c0.097-0.066,0.131-0.203,0.097-0.316C523.5,151.388,522.588,151.124,522.175,150.966z"/>
					<path style="fill:#28292C;" d="M518.589,155.987c1.061,1.084,1.931-1.019,1.248-1.828
						C518.592,152.561,517.563,155.017,518.589,155.987z"/>
				</g>
				<path style="fill:#FFFFFF;" d="M528.426,167.362c-3.255,0.108-6.341-0.946-9.301-2.224c0.562,7.566,9.892,9.631,12.727,2.302
					c0.258-0.961-0.526-0.417-1.092-0.271C530.001,167.365,529.205,167.371,528.426,167.362z"/>
				<path style="fill:#28292C;" d="M528.494,158.297c4.225-0.626,3.287,5.442-0.561,4.178c2.561-0.917,3.626-3.837-0.116-2.849
					c0.305-0.018-1.039-6.519-0.859-7.017C527.521,154.487,527.952,156.411,528.494,158.297z"/>
			</g>
			<g>
				<g>
					<g>
						<path style="fill:#BB805F;" d="M502.288,166.304c7.184,2.177,6.299-9.284,1.496-11.614c-3.019-1.84-6.895,0.603-6.286,4.312
							C497.815,161.894,499.435,165.384,502.288,166.304z"/>
					</g>
					<path style="fill:#28292C;" d="M501.975,161.941c-0.548-1.287-0.33-3.423,1.481-3.269c0.353,0.013,0.781,0.331,0.608,0.713
						c-1.98,0.711-2.125,1.676-0.638,3.212C505.023,164.669,502.101,163.245,501.975,161.941z"/>
				</g>
			</g>
		</g>
	</g>
	<g>
		<g>
			<g>
				<path style="fill:#BA5F16;" d="M649.422,228.236c19.093-3.355,26.932,27.323,5.44,28.921c-0.25-0.984-0.501-1.968-0.752-2.952
					c15.57-4.446,11.056-25.017-4.675-22.956"/>
				<path style="fill:#E1721B;" d="M616.421,264.171l9.428-37.706l-5.409-12.743l31.908,6.8l-1.542,5.944l10.581,37.388
					c1.936,6.841-3.203,13.638-10.314,13.638h-24.253C619.846,277.49,614.729,270.936,616.421,264.171z"/>
				<path style="fill:#BA5F16;" d="M623.904,247.983l29.394,1.682l4.493,14.726c1.67,5.475-2.425,11.007-8.15,11.007h-21.656
					c-5.539,0-9.606-5.202-8.269-10.577L623.904,247.983z"/>
				<path style="fill:#BA5F16;" d="M628.024,215.337l4.169,10.511l-8.49,34.6c-0.67,2.729-0.36,5.607,0.874,8.132l4.356,8.909h5.1
					l-4.612-10.002c-1.101-2.387-1.387-5.069-0.816-7.634l7.689-34.531l-0.657-8.363"/>
			</g>
			<g>
				<rect x="675.095" y="274.151" style="fill:#E4E4E4;" width="11.909" height="3.339"/>
				<polygon style="fill:#E1721B;" points="670.955,249.072 691.144,249.072 687.709,274.8 674.25,274.8 				"/>
				<polyline style="fill:#BA5F16;" points="678.447,248.389 679.979,274.8 684.191,274.8 685.468,248.389 				"/>
				<path style="fill:#E4E4E4;" d="M691.98,247.705h-22.106c-0.378,0-0.684,0.306-0.684,0.684l0,0c0,0.378,0.306,0.684,0.684,0.684
					h22.106c0.378,0,0.684-0.306,0.684-0.684l0,0C692.663,248.011,692.357,247.705,691.98,247.705z"/>
			</g>
			<g>
				<rect x="704.32" y="274.151" style="fill:#E4E4E4;" width="11.908" height="3.339"/>
				<polygon style="fill:#E1721B;" points="700.179,249.072 720.368,249.072 716.933,274.8 703.474,274.8 				"/>
				<path style="fill:#BA5F16;" d="M709.085,248.389c0,0.164,1.189,26.411,1.189,26.411h3.088l1.723-26.693"/>
				<path style="fill:#E4E4E4;" d="M721.204,247.705h-22.106c-0.378,0-0.684,0.306-0.684,0.684l0,0c0,0.378,0.306,0.684,0.684,0.684
					h22.106c0.378,0,0.684-0.306,0.684-0.684l0,0C721.888,248.011,721.582,247.705,721.204,247.705z"/>
			</g>
			<g>
				<rect x="730.352" y="274.151" style="fill:#E4E4E4;" width="11.909" height="3.339"/>
				<polygon style="fill:#E1721B;" points="726.212,249.072 746.401,249.072 742.966,274.8 729.507,274.8 				"/>
				<polyline style="fill:#BA5F16;" points="734.394,248.389 735.734,274.8 739.181,274.8 741,248.389 				"/>
				<path style="fill:#E4E4E4;" d="M747.237,247.705h-22.106c-0.378,0-0.684,0.306-0.684,0.684l0,0c0,0.378,0.306,0.684,0.684,0.684
					h22.106c0.377,0,0.683-0.306,0.683-0.684l0,0C747.921,248.011,747.615,247.705,747.237,247.705z"/>
			</g>
			<g>
				<g>
					<polygon style="fill:#BB316C;" points="701.139,277.49 750,277.49 750,468.631 689.923,468.631 					"/>
					<g>
						<polygon style="fill:#D84E88;" points="622.124,468.631 612.578,277.49 701.139,277.49 689.923,468.631 						"/>
						<g>
							<g>
								<ellipse style="fill:#BB316C;" cx="656.858" cy="327.952" rx="27.865" ry="34.595"/>
							</g>
							<path style="fill:#D84E88;" d="M658.688,333.187l-19.178,16.92c1.087,1.636,3.451,4.712,7.596,6.957
								c3.373,1.827,6.5,2.333,8.362,2.489c2.277-7.83,4.553-15.66,6.83-23.489L658.688,333.187z"/>
							<path style="fill:#D84E88;" d="M641.891,304.922l19.907,18.396l-1.941,3.667l-26.303-5.454
								c0.356-2.187,1.079-5.163,2.639-8.423C637.997,309.34,640.227,306.641,641.891,304.922z"/>
							<ellipse style="fill:#F1F1F1;" cx="664.149" cy="327.952" rx="9.189" ry="11.408"/>
						</g>
						<g>
							<g>
								<ellipse style="fill:#BB316C;" cx="656.858" cy="418.167" rx="24.016" ry="29.816"/>
							</g>
							<path style="fill:#D84E88;" d="M661.245,391.277l4.787,21.16l-5.457,1.149l-20.489-12.543
								c0.759-1.426,3.457-6.068,9.287-8.617C654.765,390.068,659.605,390.914,661.245,391.277z"/>
							<path style="fill:#D84E88;" d="M658.947,417.223c-6.543,5.521-13.085,11.043-19.628,16.564
								c0.937,1.879,3.33,6.016,8.234,8.904c2.982,1.757,5.807,2.412,7.669,2.681c2.64-7.436,5.28-14.872,7.919-22.309
								L658.947,417.223z"/>
							<ellipse style="fill:#F1F1F1;" cx="663.142" cy="418.167" rx="7.919" ry="9.832"/>
						</g>
					</g>
				</g>
				<path style="fill:#52209C;" d="M583.848,329.232c-0.329,0.634-0.657,1.269-0.986,1.903c-0.149,0.288-0.3,0.579-0.513,0.823
					c-0.268,0.308-0.621,0.528-0.968,0.744c-1.266,0.785-2.594,1.591-4.078,1.711c-1.316,0.107-2.633-0.35-3.743-1.066
					c-1.003-0.646-1.881-1.526-2.378-2.611c-0.496-1.085-0.577-2.387-0.07-3.467c0.479-1.021,1.447-1.768,2.521-2.111
					c1.074-0.342,2.534-0.473,3.63-0.206c-0.949-4.542-1.533-9.434-2.576-13.955c1.034-0.364,1.979-0.94,2.914-1.511
					c5.909-3.609,11.817-7.218,17.726-10.827c1.024,8.073,2.629,16.398,4.4,24.341c0.56,2.514,1.112,5.331-0.25,7.517
					c-0.779,1.25-2.119,2.101-3.555,2.428c-1.619,0.369-3.454,0.055-4.657-1.09c-1.203-1.145-1.57-3.179-0.598-4.525
					c0.964-1.334,2.788-1.643,4.422-1.843c-1.564-5.718-3.602-11.745-4.809-17.549c-3.157,1.879-6.815,3.834-10.114,5.453
					C581.038,318.683,582.569,324.022,583.848,329.232z"/>
				<path style="fill:#E1721B;" d="M603.264,357.485c-4.289-0.383-8.549-1.099-12.727-2.142c-0.389,5.176-0.904,10.343-1.545,15.494
					c-3.767-5.25-9.617-0.9-6.845,4.094c2.364,3.115,7.698,5.323,11.072,2.617c2.058-4.72,0.529-10.63,1.099-15.725
					c3.06,1.623,6.904,1.555,9.889,3.595"/>
			</g>
			<path style="fill:#BB316C;" d="M692.378,283.847c-0.241,3.753,5.294,2.615,5.115-0.63
				C697.805,279.754,692.428,281.028,692.378,283.847z"/>
			<path style="fill:#D84E88;" d="M692.434,286.259c0.128-0.273,0.301-0.523,0.477-0.768c1.219-1.705,2.617-3.282,4.163-4.697
				c0.133,0.244,0.267,0.488,0.4,0.732c0.021,0.039,0.043,0.082,0.037,0.126c-0.006,0.044-0.039,0.08-0.07,0.112
				c-1.593,1.63-3.133,3.379-4.022,5.478"/>
			<g>
				<path style="fill:#BB316C;" d="M615.709,284.203c0.383,0.361,0.862,0.644,1.386,0.685c0.829,0.064,1.61-0.506,2.008-1.236
					c0.936-1.717-0.526-4.057-2.527-3.951C614.239,279.826,614.435,283.003,615.709,284.203z"/>
				<path style="fill:#D84E88;" d="M615.541,284.383c0.064-1.68,0.754-3.329,1.905-4.554c0.124-0.132,0.287-0.27,0.463-0.23
					c0.076,0.017,0.141,0.066,0.203,0.113c0.172,0.132,0.345,0.263,0.517,0.395c-0.113,0.03-0.199,0.119-0.276,0.207
					c-1.123,1.274-1.731,2.989-1.662,4.686"/>
			</g>
			<g>
				<path style="fill:#BB316C;" d="M683.348,464.371c0.382,0.361,0.862,0.644,1.386,0.685c0.829,0.065,1.61-0.506,2.008-1.236
					c0.936-1.717-0.526-4.057-2.527-3.951C681.878,459.993,682.075,463.171,683.348,464.371z"/>
				<path style="fill:#D84E88;" d="M683.18,464.55c0.064-1.68,0.754-3.329,1.905-4.554c0.124-0.132,0.287-0.27,0.463-0.23
					c0.076,0.017,0.141,0.066,0.203,0.113c0.172,0.132,0.345,0.263,0.517,0.395c-0.113,0.03-0.199,0.119-0.276,0.207
					c-1.123,1.274-1.731,2.989-1.662,4.686"/>
			</g>
			<g>
				<path style="fill:#BB316C;" d="M631.6,461.694c-0.106-0.515-0.335-1.023-0.74-1.358c-0.641-0.529-1.608-0.512-2.354-0.143
					c-1.753,0.867-1.903,3.622-0.205,4.685C630.284,466.12,631.951,463.408,631.6,461.694z"/>
				<path style="fill:#D84E88;" d="M631.84,461.644c-1.018,1.337-2.531,2.29-4.177,2.63c-0.177,0.037-0.39,0.056-0.511-0.078
					c-0.053-0.058-0.078-0.135-0.101-0.21c-0.065-0.207-0.13-0.414-0.196-0.621c0.11,0.041,0.231,0.017,0.345-0.011
					c1.651-0.397,3.135-1.45,4.055-2.878"/>
			</g>
		</g>
		<g>
			<defs>
				<rect id="SVGID_1_" y="230.175" width="148.099" height="248.229"/>
			</defs>
			<clipPath id="SVGID_00000129180886317722512780000009465287717194214842_">
				<use xlink:href="#SVGID_1_"  style="overflow:visible;"/>
			</clipPath>
			<g style="clip-path:url(#SVGID_00000129180886317722512780000009465287717194214842_);">
				<g>
					<g>
						<polyline style="fill:#D84E88;" points="41.811,272.039 39.514,247.912 35.492,247.529 34.726,272.039 						"/>
						<path style="fill:#E1721B;" d="M36.998,247.717c-0.433,0.061-0.852-0.179-1.183-0.464c-0.747-0.644-1.243-1.573-1.361-2.552
							c-0.059-0.486,0.021-1.066,0.445-1.31c0.082-0.048,0.174-0.08,0.248-0.14c0.281-0.229,0.145-0.669,0.111-1.03
							c-0.03-0.318,0.048-0.651,0.244-0.904c0.255-0.328,0.668-0.486,0.99-0.748c0.535-0.434,0.791-1.142,0.814-1.83
							c0.023-0.688-0.161-1.366-0.376-2.02c0.653,0.441,1.175,1.046,1.689,1.643c0.382,0.444,0.769,0.896,1.005,1.432
							c0.447,1.016,0.289,2.213-0.143,3.235c-0.149,0.353-0.333,0.728-0.246,1.101c0.048,0.204,0.173,0.381,0.264,0.57
							c0.378,0.791,0.095,1.801-0.555,2.389c-0.65,0.588-1.594,0.781-2.459,0.645"/>
					</g>
					<g>
						<polyline style="fill:#D84E88;" points="17.875,271.465 15.577,247.337 11.556,246.954 10.79,271.465 						"/>
						<path style="fill:#E1721B;" d="M11.257,246.37c-0.38-0.438-0.581-1.083-0.341-1.611c0.139-0.306,0.419-0.593,0.346-0.92
							c-0.033-0.15-0.138-0.273-0.233-0.395c-0.367-0.472-0.635-1.046-0.626-1.644c0.013-0.907,0.634-1.672,1.141-2.424
							c0.516-0.764,0.948-1.609,1.073-2.522c0.115-0.84-0.041-1.715-0.44-2.463c1.018,0.866,1.948,1.836,2.769,2.891
							c0.553,0.709,1.062,1.467,1.357,2.317c0.295,0.849,0.36,1.804,0.031,2.641c-0.186,0.473-0.499,0.957-0.37,1.449
							c0.037,0.14,0.108,0.268,0.161,0.402c0.2,0.501,0.144,1.084-0.086,1.572c-0.23,0.488-0.622,0.888-1.068,1.191
							C13.737,247.693,12.235,247.498,11.257,246.37z"/>
					</g>
					<rect x="-6.763" y="301.816" style="fill:#52209C;" width="71.84" height="2.962"/>
					<g>
						<g>
							<rect x="-6.763" y="270.699" style="fill:#D84E88;" width="65.152" height="31.053"/>
						</g>
						<g>
							<path style="fill:#F1F1F1;" d="M-7.888,270.482c-0.375,1.767-2.928,7.804,0.512,7.155c0.528,2.992,4.878,5.294,6.61,2.102
								c1.739,1.405,5.594,2.171,5.94-0.813c2.166,3.685,8.174,2.48,8.753-1.753c1.262,3.166,6.715,4.974,7.736,0.863
								c1.107,3.475,6.54,4.985,8.101,1.16c1.318,4.583,7.855,3.096,8.727-1.105c2.793,3.534,8.865,2.471,10.292-1.8
								c0.815,3.391,5.99,3.109,6.434-0.348c1.197,2.516,5.67,3.29,6.189,0.008c-0.281-2.338-1.727-4.457-2.494-6.685
								L-7.888,270.482z"/>
							<g>
								<path style="fill:#D84E88;" d="M32.471,277.059c-0.52,1.382,1.738,2.867,2.485,1.402
									C35.982,276.67,33.148,274.729,32.471,277.059z"/>
								<path style="fill:#D84E88;" d="M24.814,276.173c-0.52,1.382,1.738,2.867,2.485,1.402
									C28.325,275.784,25.49,273.844,24.814,276.173z"/>
								<path style="fill:#D84E88;" d="M16.891,275.671c-0.52,1.382,1.737,2.867,2.485,1.402
									C20.402,275.282,17.568,273.341,16.891,275.671z"/>
								<path style="fill:#D84E88;" d="M8.084,275.575c-0.52,1.382,1.737,2.867,2.485,1.402
									C11.595,275.186,8.761,273.245,8.084,275.575z"/>
								<path style="fill:#D84E88;" d="M0.233,276.245c-0.52,1.382,1.738,2.867,2.485,1.402
									C3.744,275.856,0.91,273.916,0.233,276.245z"/>
								<path style="fill:#D84E88;" d="M-5.296,275.671c-0.52,1.382,1.737,2.867,2.485,1.402
									C-1.785,275.282-4.62,273.341-5.296,275.671z"/>
								<path style="fill:#D84E88;" d="M42.356,275.167c-0.52,1.382,1.738,2.867,2.485,1.402
									C45.867,274.778,43.033,272.837,42.356,275.167z"/>
								<path style="fill:#D84E88;" d="M50.854,273.628c-0.52,1.382,1.738,2.867,2.485,1.402
									C54.365,273.239,51.531,271.299,50.854,273.628z"/>
								<path style="fill:#D84E88;" d="M56.852,273.628c-0.52,1.382,1.738,2.867,2.485,1.402
									C60.363,273.239,57.529,271.299,56.852,273.628z"/>
							</g>
						</g>
						<g>
							<path style="fill:#D84E88;" d="M32.471,277.059c-0.52,1.382,1.738,2.867,2.485,1.402
								C35.982,276.67,33.148,274.729,32.471,277.059z"/>
							<path style="fill:#D84E88;" d="M24.814,276.173c-0.52,1.382,1.738,2.867,2.485,1.402
								C28.325,275.784,25.49,273.844,24.814,276.173z"/>
							<path style="fill:#D84E88;" d="M16.891,275.671c-0.52,1.382,1.737,2.867,2.485,1.402
								C20.402,275.282,17.568,273.341,16.891,275.671z"/>
							<path style="fill:#D84E88;" d="M8.084,275.575c-0.52,1.382,1.737,2.867,2.485,1.402
								C11.595,275.186,8.761,273.245,8.084,275.575z"/>
							<path style="fill:#D84E88;" d="M0.233,276.245c-0.52,1.382,1.738,2.867,2.485,1.402
								C3.744,275.856,0.91,273.916,0.233,276.245z"/>
							<path style="fill:#D84E88;" d="M-5.296,275.671c-0.52,1.382,1.737,2.867,2.485,1.402
								C-1.785,275.282-4.62,273.341-5.296,275.671z"/>
							<path style="fill:#D84E88;" d="M42.356,275.167c-0.52,1.382,1.738,2.867,2.485,1.402
								C45.867,274.778,43.033,272.837,42.356,275.167z"/>
							<path style="fill:#D84E88;" d="M50.854,273.628c-0.52,1.382,1.738,2.867,2.485,1.402
								C54.365,273.239,51.531,271.299,50.854,273.628z"/>
							<path style="fill:#D84E88;" d="M56.852,273.628c-0.52,1.382,1.738,2.867,2.485,1.402
								C60.363,273.239,57.529,271.299,56.852,273.628z"/>
						</g>
						<g>
							<path style="fill:#F1F1F1;" d="M-7.528,288.284c-0.044-0.037-0.089-0.074-0.133-0.112c-2.039,4.427,1.699,12.676,6.189,6.623
								c0.794,2.812,5.246,3.64,6.117,0.518c1.876,2.861,6.98,2.966,7.875-0.702c1.611,3.438,6.996,3.033,8.075-0.606
								c0.736,3.469,5.853,3.902,7.163,0.608c1.326,3.071,6.135,2.546,6.769-0.737c0.758,3.669,6.545,5.105,7.592,0.987
								c1.326,3.831,7.213,3.487,8.086-0.47c0.055,3.217,5.036,2.692,4.422-0.464c4.63,6.298,6.071-2.133,4.019-5.87"/>
							<g>
								<path style="fill:#D84E88;" d="M6.692,292.595c-0.52,1.382,1.738,2.867,2.485,1.402
									C10.203,292.206,7.369,290.266,6.692,292.595z"/>
								<path style="fill:#D84E88;" d="M-0.489,292.595c-0.52,1.382,1.738,2.867,2.485,1.402
									C3.022,292.206,0.188,290.266-0.489,292.595z"/>
								<path style="fill:#D84E88;" d="M-6.169,291.957c-0.52,1.382,1.738,2.867,2.485,1.402
									C-2.658,291.568-5.493,289.627-6.169,291.957z"/>
								<path style="fill:#D84E88;" d="M14.799,292.339c-0.52,1.382,1.738,2.867,2.485,1.402
									C18.31,291.95,15.475,290.009,14.799,292.339z"/>
								<path style="fill:#D84E88;" d="M22.809,292.339c-0.52,1.382,1.738,2.867,2.485,1.402
									C26.32,291.95,23.486,290.009,22.809,292.339z"/>
								<path style="fill:#D84E88;" d="M29.671,292.339c-0.52,1.382,1.738,2.867,2.485,1.402
									C33.182,291.95,30.348,290.009,29.671,292.339z"/>
								<path style="fill:#D84E88;" d="M37.203,292.339c-0.52,1.382,1.737,2.867,2.485,1.402
									C40.714,291.95,37.88,290.009,37.203,292.339z"/>
								<path style="fill:#D84E88;" d="M44.384,292.339c-0.52,1.382,1.738,2.867,2.485,1.402
									C47.895,291.95,45.061,290.009,44.384,292.339z"/>
								<path style="fill:#D84E88;" d="M51.054,292.339c-0.52,1.382,1.738,2.867,2.485,1.402
									C54.565,291.95,51.731,290.009,51.054,292.339z"/>
								<path style="fill:#D84E88;" d="M55.969,291.828c-0.52,1.382,1.738,2.867,2.485,1.402
									C59.48,291.44,56.646,289.499,55.969,291.828z"/>
							</g>
						</g>
					</g>
				</g>
				<g>
					<rect x="-3.536" y="316.187" style="fill:#E1721B;" width="130.591" height="153.559"/>
					<polygon style="fill:#BA5F16;" points="127.054,469.746 -3.536,438.766 -3.536,469.746 					"/>
					<g>
						<path style="fill:#F1F1F1;" d="M129.326,326.715c0,0-57.591,10.91-132.862,10.91v65.106
							C103.395,391.97,129.326,326.715,129.326,326.715z"/>
						<path style="fill:#CACACA;" d="M112.443,332.78c5.568-1.34,11.057-3.071,16.233-5.542
							c-5.043,7.228-12.386,12.466-19.581,17.556c5.052-5.179,11.04-9.411,15.978-14.741c-6.814,3.929-15.009,5.406-22.766,4.103
							C105.694,334.261,109.094,333.376,112.443,332.78z"/>
						<path style="fill:#CACACA;" d="M-3.536,362.913c11.809-0.58,24.698-1.617,38.456-3.331c16.833-2.097,32.052-4.845,45.48-7.787
							c-11.367,3.462-25.001,6.948-40.683,9.702c-16.107,2.828-30.756,4.249-43.253,4.911"/>
					</g>
					<rect x="-3.536" y="304.778" style="fill:#BA5F16;" width="147.383" height="11.408"/>
				</g>
				<g>
					<g>
						<path style="fill:#BA5F16;" d="M91.481,282.941c0.039-0.62-0.066-1.24-0.07-1.861c-0.004-0.621,0.109-1.279,0.515-1.749
							c0.406-0.47,1.172-0.667,1.666-0.291c-0.196-1.04,0.394-2.176,1.357-2.613c0.963-0.438,2.207-0.135,2.861,0.697
							c0.564-0.909,1.394-1.738,2.446-1.929c1.053-0.191,2.293,0.499,2.38,1.565c0.265-0.354,0.536-0.714,0.899-0.967
							c0.363-0.253,0.839-0.385,1.254-0.234c0.587,0.213,0.852,0.879,1.049,1.471c0.489-0.474,1.034-0.891,1.619-1.241
							c0.225-0.134,0.465-0.261,0.727-0.274c0.435-0.022,0.832,0.286,1.045,0.665s0.28,0.821,0.342,1.251
							c0.423-0.559,1.307-0.697,1.88-0.293c0.631,0.445,0.769,1.308,0.853,2.076c0.321-0.189,0.751-0.099,1.041,0.134
							c0.29,0.233,0.462,0.583,0.581,0.936c0.313,0.926,0.314,1.955,0.005,2.882c0.437,0.031,0.674,0.529,0.737,0.962
							c0.126,0.866-0.089,1.778-0.589,2.496c-0.236,0.34-0.531,0.635-0.793,0.956c-0.386,0.474-0.705,1.01-1.171,1.406
							c-0.601,0.511-1.395,0.74-2.178,0.835c-1.694,0.205-3.428-0.153-5.107,0.148c-0.901,0.162-1.769,0.511-2.682,0.575
							c-1.173,0.082-2.373-0.338-3.238-1.134c-1.71,0.658-3.769,0.301-5.158-0.895c-0.258-0.222-0.5-0.475-0.81-0.617
							c-1.064-0.486-1.853-0.827-2.172-2.013C90.536,285.007,89.994,283.09,91.481,282.941z"/>
						<path style="fill:#E1721B;" d="M72.847,284.086c0.316-0.063,0.632-0.127,0.948-0.19c-0.068-0.587-0.24-1.161-0.271-1.751
							c-0.031-0.59,0.106-1.231,0.548-1.623c0.442-0.392,1.24-0.394,1.555,0.105c0.127-1.004,0.413-2.209,1.38-2.506
							c0.72-0.222,1.471,0.194,2.088,0.627c1.241,0.871,2.385,1.88,3.403,3.004c-0.036-0.735,0.634-1.428,1.37-1.416
							c0.736,0.012,1.384,0.725,1.325,1.459c0.504-0.265,0.791-0.858,1.321-1.064c0.571-0.222,1.238,0.104,1.602,0.596
							c0.364,0.493,0.497,1.114,0.62,1.714c0.101-0.557,0.752-0.891,1.308-0.786s0.999,0.541,1.281,1.032
							c0.604,1.053,0.569,2.441-0.086,3.463c-0.932,1.454-2.799,1.958-4.508,2.209c-2.006,0.295-4.102,0.397-6.019-0.266
							c-0.96-0.332-1.86-0.852-2.87-1.024c-0.809-0.138-1.676,0.036-2.471-0.169c-0.579-0.149-0.941-0.511-1.311-0.966
							C73.919,286.361,72.619,284.132,72.847,284.086z"/>
						<path style="fill:#E1721B;" d="M112.039,287.763c-0.412-1.765,0.427-3.75,1.98-4.685c0.361-0.217,0.776-0.385,1.194-0.336
							c0.418,0.049,0.826,0.372,0.853,0.792c0.045-0.944,0.491-1.862,1.205-2.481c0.333-0.288,0.743-0.519,1.182-0.519
							c0.44,0,0.898,0.29,0.978,0.722c0.176-0.466,0.356-0.941,0.666-1.331c0.309-0.391,0.774-0.691,1.272-0.678
							c0.498,0.013,0.993,0.418,0.992,0.916c0.638-0.763,1.313-1.553,2.232-1.934c0.919-0.381,2.153-0.201,2.649,0.661
							c0.213,0.369,0.265,0.81,0.261,1.236c-0.008,0.981-0.292,1.958-0.811,2.791c0.673-0.385,1.527-0.489,2.235-0.173
							c0.708,0.315,1.22,1.083,1.139,1.855c-0.054,0.512-0.342,0.966-0.622,1.398c0.268-0.323,0.857-0.068,0.961,0.338
							c0.104,0.406-0.116,0.824-0.371,1.157c-0.662,0.867-1.619,1.504-2.675,1.78c-0.886,0.232-1.826,0.214-2.701,0.485"/>
					</g>
					<g>
						<polygon style="fill:#52209C;" points="83.897,304.778 69.344,284.667 132.683,287.454 119.94,304.778 						"/>
						<polygon style="fill:#411285;" points="86.044,285.402 95.387,304.778 88.397,304.778 75.546,284.94 						"/>
					</g>
				</g>
			</g>
		</g>
		<g>
			<g>
				<path style="fill:#E1721B;" d="M687.401,94.913c-13.103,18.249,10.335,15.143-2.152,28.276
					c-5.797,6.447,12.011,10.629,2.946,20.758c-1.349,0.691-1.66,2.848,0.244,2.333c2.056-1.479,3.346-4.07,4.202-6.412
					c3.064-7.116-8.956-12.878-0.662-18.749c5.95-7.144-4.136-10.993-5.645-16.977c-0.176-5.804,7.614-9.057,5.892-15.316
					c-0.176-0.983-0.995-4.239-2.389-4.139C686.806,86.819,689.348,91.89,687.401,94.913z"/>
				<path style="fill:#52209C;" d="M688.173,16.701c-39.593,1.11-28.304,56.073-0.294,66.975
					C705.603,70.682,723.386,19.056,688.173,16.701z"/>
				<path style="fill:#411285;" d="M680.603,76.846c-2.781-1.612-15.057-16.055-6.521-14.934c5.592,4.32,12.361,4.303,18.865,5.188
					c2.439,0.332,3.85,2.937,2.848,5.185C693.103,78.323,686.52,82.871,680.603,76.846z"/>
				<path style="fill:#52209C;" d="M685.779,83.591c2.285-5.282,6.414,1.513,8.401,3.687c3.498,5.075-5.003,6.293-8.454,5.261
					C679.82,91.647,684.302,86.669,685.779,83.591z"/>
				<path style="fill:#E1721B;" d="M686.179,81.805c-1.191,0.022-3.146,1.983-1.147,2.355c2.165,0.046,4.275-1.45,6.503-0.701
					c0.372,0.089,0.86,0.166,1.053-0.164C692.36,81.23,687.8,81.609,686.179,81.805z"/>
			</g>
			<g>
				<path style="fill:#52209C;" d="M710.275,120.392c-1.403,2.033-3.18,3.808-4.391,5.96c-1.211,2.153-1.784,4.899-0.605,7.069
					c1.033,1.902,3.156,2.946,4.486,4.654c1.434,1.842,1.815,4.433,1.036,6.633c-1.185,3.342-4.724,5.599-5.354,9.088
					c-0.331,1.833,0.265,3.809,1.554,5.154s3.24,2.022,5.085,1.766c0.016-0.856-0.968-1.309-1.749-1.661
					c-1.146-0.516-2.204-1.29-2.885-2.347c-0.681-1.057-0.946-2.416-0.534-3.603c0.476-1.372,1.724-2.296,2.815-3.254
					c1.269-1.114,2.418-2.407,3.121-3.942c1.15-2.51,0.963-5.588-0.482-7.941c-0.903-1.471-2.229-2.625-3.353-3.935
					c-1.124-1.31-2.088-2.91-2.018-4.635c0.078-1.911,1.398-3.534,2.793-4.842c1.395-1.308,2.97-2.512,3.849-4.211
					c0.973-1.882,0.953-4.107,0.812-6.221c-0.057-0.851-0.149-1.755-0.674-2.428c-0.147-0.188-0.337-0.359-0.572-0.406
					c-1.69-0.335-0.855,3.082-0.888,3.81C712.235,117.019,711.349,118.836,710.275,120.392z"/>
				<g>
					<path style="fill:#D84E88;" d="M701.159,92.958c-9.144-20.125-1.167-43.838,23.515-43.444
						c10.146,1.659,17.065,11.799,17.702,21.704c0.967,14.201-10.328,24.909-20.298,33.39
						C711.07,116.035,704.153,103.492,701.159,92.958z"/>
					<path style="fill:#BB316C;" d="M705.385,97.825c-1.096-4.182,5.164-2.825,7.584-2.42c3.909,0.755,7.817-0.034,11.606-0.926
						c0.523-0.003,1.078,0.181,1.382,0.606c0.28,3.824-3.687,7.583-6.69,9.762C714.039,109.223,706.251,103.732,705.385,97.825z"/>
				</g>
				<path style="fill:#BB316C;" d="M705.385,97.825c-1.096-4.182,5.164-2.825,7.584-2.42c3.909,0.755,7.817-0.034,11.606-0.926
					c0.523-0.003,1.078,0.181,1.382,0.606c0.28,3.824-3.687,7.583-6.69,9.762C714.039,109.223,706.251,103.732,705.385,97.825z"/>
				<path style="fill:#D84E88;" d="M709.809,107.705c0.323-0.41,0.675-0.818,1.141-1.055c0.684-0.347,1.528-0.265,2.218,0.068
					c0.691,0.332,1.249,0.888,1.737,1.479c1.159,1.406,1.984,3.051,2.798,4.681c0.294,0.589,0.595,1.263,0.37,1.881
					c-0.232,0.637-0.933,0.96-1.583,1.152c-2.047,0.606-4.24,0.575-6.347,0.228c-0.968-0.16-1.964-0.403-2.723-1.026
					c-1.214-0.998-1.076-2.12-0.244-3.182C708.188,110.642,708.775,109.02,709.809,107.705z"/>
				<path style="fill:#52209C;" d="M715.08,107.952c-1.057-1.529-9.442-1.532-6.645,0.736c2.597-0.369,5.61-0.329,7.695,1.466
					c0.798,0.737,1.287-0.52,0.611-1.019C716.198,108.742,715.656,108.304,715.08,107.952z"/>
			</g>
		</g>
		<g>
			<g>
				<path style="fill:#E1721B;" d="M41.687,121.714c-1.422,2.838-3.204,5.682-3.239,8.856c-0.023,2.087,0.723,4.095,1.358,6.083
					c0.717,2.243,1.305,4.528,1.76,6.839c0.218,1.105,0.404,2.251,0.152,3.349c-0.344,1.495-1.442,2.678-2.337,3.924
					c-0.895,1.246-1.638,2.824-1.142,4.276c0.547,1.602,2.422,2.49,2.889,4.117c0.483,1.686-0.72,3.334-1.715,4.779
					c-0.806,1.171-1.518,2.408-2.125,3.694c-0.685,1.451-1.247,3.081-0.86,4.638c0.386,1.557,2.082,2.87,3.583,2.303
					c-0.493-2.242,0.662-4.517,2.058-6.339c1.396-1.822,3.095-3.471,3.977-5.59c0.882-2.119,0.649-4.959-1.274-6.211
					c-0.5-0.325-1.082-0.525-1.53-0.919c-1.234-1.087-0.91-3.13-0.053-4.533c0.857-1.403,2.138-2.566,2.685-4.117
					c0.872-2.468-0.328-5.13-1.382-7.526c-1.552-3.529-2.858-7.37-2.257-11.177c0.646-4.092,3.375-7.5,5.12-11.257
					c3.028-6.522,3.035-14.613-0.22-21.063c-0.498-0.986-1.565-2.983-2.653-1.603c-0.832,1.055,0.153,3.203,0.409,4.266
					c0.873,3.614,0.998,7.387,0.534,11.069C44.892,113.793,43.592,117.913,41.687,121.714z"/>
				<g>
					<path style="fill:#52209C;" d="M52.755,71.971c7.917-18.927-8.574-49.261-30.738-36.236C9.597,43.3,8.405,60.96,14.336,73.1
						c5.433,7.737,13.87,12.909,21.286,18.598C48.498,101.887,50.315,80.298,52.755,71.971z"/>
					<path style="fill:#411285;" d="M46.985,72.008C42,80.572,23.937,76.247,28.11,83.034c4.542,3.834,10.877,11.384,17.118,6.028
						C46.967,87.318,52.902,69.071,46.985,72.008z"/>
				</g>
				<path style="fill:#52209C;" d="M40.784,92.189c0.087-0.407,0.222-0.849,0.577-1.066c0.251-0.153,0.565-0.16,0.857-0.128
					c0.729,0.079,1.417,0.365,2.093,0.648c2.106,0.88,4.221,1.764,6.183,2.931c0.559,0.332,1.172,0.811,1.138,1.46
					c-0.017,0.321-0.197,0.61-0.388,0.869c-1.785,2.43-4.81,3.595-7.74,4.307c-0.541,0.132-1.16,0.238-1.616-0.082
					c-0.288-0.203-0.448-0.538-0.576-0.866c-0.479-1.218-0.516-2.412-0.688-3.68C40.427,95.122,40.476,93.631,40.784,92.189z"/>
				<path style="fill:#E1721B;" d="M39.022,95.468c-0.666-0.259-1.498-1.175-0.985-1.897c0.151-0.213,0.369-0.367,0.591-0.504
					c0.383-0.237,0.923-0.236,1.356-0.31c0.525-0.089,1.049-0.186,1.569-0.299c1.037-0.225,2.064-0.51,3.048-0.909
					c0.88-0.356,1.722-0.801,2.604-1.151c0.202-0.08,0.415-0.157,0.631-0.138c0.378,0.032,0.687,0.368,0.761,0.74
					c0.074,0.373-0.054,0.764-0.271,1.075c-0.217,0.312-0.517,0.555-0.821,0.782c-1.896,1.414-4.144,2.353-6.483,2.705
					C40.355,95.664,39.651,95.714,39.022,95.468z"/>
			</g>
			<g>
				<path style="fill:#52209C;" d="M60.524,92.403c0.485,2.521,1.431,4.928,2.075,7.413c0.644,2.485,0.977,5.145,0.225,7.599
					c-0.8,2.61-2.721,4.692-4.273,6.937c-1.552,2.245-2.801,5.038-2.002,7.647c0.668,2.181,2.598,3.697,3.895,5.573
					c1.326,1.917,1.982,4.473,1.049,6.608c-0.462,1.056-1.284,1.961-1.523,3.088c-0.239,1.127,0.561,2.597,1.692,2.377
					c0.37-0.072,0.684-0.31,0.961-0.566c1.801-1.667,2.488-4.207,2.829-6.637c0.264-1.884,0.349-3.9-0.526-5.59
					c-0.958-1.851-2.94-3.051-3.732-4.979c-0.728-1.773-0.295-3.824,0.51-5.563c1.076-2.325,2.784-4.347,3.594-6.778
					c1.441-4.325-0.199-8.999-1.694-13.306c-1.494-4.307-2.83-9.172-0.866-13.285c0.28-0.586,1.669-3.549-0.025-3.615
					c-0.974-0.038-1.563,2.77-1.756,3.448C60.072,85.893,59.912,89.218,60.524,92.403z"/>
				<g>
					<path style="fill:#D84E88;" d="M62.843,15.658c-16.547,8.929-17.314,33.882-9.156,48.815c2.173,7.295,8.126,18.17,16.65,11.215
						c6.241-3.952,12.58-7.989,17.4-13.587C106.88,43.201,91.376,3.964,62.843,15.658z"/>
					<path style="fill:#BB316C;" d="M56.296,61.62c-1.298-2.711-1.124-8.645,3.106-6.488c2.217,1.629,4.004,3.999,6.712,4.877
						c3.406,1.964,11.504,0.16,11.621,5.515c-1.59,5.366-8.503,7.952-13.452,8.474C59.121,73.094,58.333,65.826,56.296,61.62z"/>
				</g>
				<path style="fill:#D84E88;" d="M59.916,77.884c0.819-0.847,1.819-1.553,2.959-1.85c0.249-0.065,0.513-0.109,0.762-0.042
					c0.21,0.057,0.39,0.19,0.551,0.337c0.441,0.403,0.76,0.92,1.048,1.444c0.954,1.734,1.628,3.622,1.99,5.568
					c0.038,0.202,0.068,0.428-0.045,0.6c-0.071,0.109-0.189,0.178-0.305,0.24c-0.96,0.514-2.038,0.808-3.127,0.851
					c-1.316,0.053-2.66-0.27-3.759-0.996c-0.929-0.615-2.016-1.782-2.153-2.948C57.717,80.058,59.245,78.577,59.916,77.884z"/>
				<path style="fill:#52209C;" d="M58.584,77.762c-0.51-0.362-0.518-1.195-0.273-1.717c0.121-0.258,0.336-0.471,0.596-0.588
					c1.012-0.456,2.457-0.303,3.534-0.232c1.223,0.081,2.447,0.319,3.559,0.85c0.696,0.332,1.339,0.775,1.899,1.306
					c0.5,0.475,0.96,1.172,0.704,1.812c-0.197,0.492-0.77,0.747-1.299,0.734c-0.529-0.013-1.027-0.24-1.505-0.467
					c-1.787-0.849-3.671-1.787-5.638-1.573C59.623,77.945,59.025,78.075,58.584,77.762z"/>
			</g>
		</g>
	</g>
</g>
</svg>
